<?xml version="1.0" encoding="UTF-8"?>
<svg width="60" height="60" viewBox="0 0 60 60" xmlns="http://www.w3.org/2000/svg">
  <circle cx="30" cy="30" r="27" fill="#FFD700" opacity="0.8"/>
  <path d="M30,8 C40.5,8 49,16.5 49,27 C49,37.5 40.5,46 30,46 C19.5,46 11,37.5 11,27 C11,16.5 19.5,8 30,8 Z" fill="#FFC800" stroke="#B8860B" stroke-width="1.5"/>
  <path d="M23,22 C23,25.5 26,32 30,32 C34,32 37,25.5 37,22 C37,18.5 34,16 30,16 C26,16 23,18.5 23,22 Z" fill="#B8860B"/>
  <path d="M15,38 C15,34 26,29 30,29 C34,29 45,34 45,38 C45,42 38,52 30,52 C22,52 15,42 15,38 Z" fill="#B8860B"/>
</svg>