<?xml version="1.0" encoding="UTF-8"?>
<svg width="350" height="200" viewBox="0 0 350 200" xmlns="http://www.w3.org/2000/svg">
  <rect width="350" height="200" fill="#f5f7fa" rx="10" ry="10"/>
  
  <!-- 와이파이 타워 -->
  <rect x="60" y="50" width="10" height="100" fill="#1e88e5"/>
  <path d="M40,50 L90,50 L65,30 Z" fill="#1e88e5"/>
  <path d="M30,150 L100,150 C100,150 95,170 65,170 C35,170 30,150 30,150 Z" fill="#1e88e5"/>
  
  <!-- 와이파이 신호 -->
  <path d="M65,40 C90,40 110,60 110,85 M65,40 C40,40 20,60 20,85" stroke="#64b5f6" stroke-width="3" fill="none" stroke-linecap="round"/>
  <path d="M65,50 C85,50 100,65 100,85 M65,50 C45,50 30,65 30,85" stroke="#64b5f6" stroke-width="3" fill="none" stroke-linecap="round"/>
  <path d="M65,60 C80,60 90,70 90,85 M65,60 C50,60 40,70 40,85" stroke="#64b5f6" stroke-width="3" fill="none" stroke-linecap="round"/>
  
  <!-- IoT 센서 1 -->
  <circle cx="170" cy="70" r="25" fill="#4caf50" stroke="#2e7d32" stroke-width="2"/>
  <circle cx="170" cy="70" r="15" fill="#ffffff"/>
  <circle cx="170" cy="70" r="5" fill="#2e7d32"/>
  <line x1="145" y1="70" x2="120" y2="70" stroke="#64b5f6" stroke-width="2" stroke-dasharray="3,3"/>
  
  <!-- IoT 센서 2 -->
  <circle cx="250" cy="90" r="25" fill="#ff9800" stroke="#ef6c00" stroke-width="2"/>
  <circle cx="250" cy="90" r="15" fill="#ffffff"/>
  <circle cx="250" cy="90" r="5" fill="#ef6c00"/>
  <line x1="225" y1="90" x2="200" y2="80" stroke="#64b5f6" stroke-width="2" stroke-dasharray="3,3"/>
  <line x1="200" y1="80" x2="120" y2="70" stroke="#64b5f6" stroke-width="2" stroke-dasharray="3,3"/>
  
  <!-- IoT 센서 3 -->
  <circle cx="210" cy="150" r="25" fill="#9c27b0" stroke="#6a1b9a" stroke-width="2"/>
  <circle cx="210" cy="150" r="15" fill="#ffffff"/>
  <circle cx="210" cy="150" r="5" fill="#6a1b9a"/>
  <line x1="185" y1="150" x2="120" y2="100" stroke="#64b5f6" stroke-width="2" stroke-dasharray="3,3"/>
  
  <!-- 스마트 벤치 -->
  <rect x="280" y="130" width="50" height="15" fill="#795548" rx="2" ry="2"/>
  <rect x="285" y="145" width="40" height="25" fill="#8d6e63" rx="2" ry="2"/>
  <circle cx="305" cy="137" r="5" fill="#ffc107"/>
  
  <!-- 태양광 패널 -->
  <rect x="290" y="40" width="40" height="30" fill="#1a237e" stroke="#000000" stroke-width="1"/>
  <line x1="300" y1="40" x2="300" y2="70" stroke="#ffffff" stroke-width="1"/>
  <line x1="310" y1="40" x2="310" y2="70" stroke="#ffffff" stroke-width="1"/>
  <line x1="320" y1="40" x2="320" y2="70" stroke="#ffffff" stroke-width="1"/>
  <line x1="290" y1="50" x2="330" y2="50" stroke="#ffffff" stroke-width="1"/>
  <line x1="290" y1="60" x2="330" y2="60" stroke="#ffffff" stroke-width="1"/>
  
  <!-- 데이터 연결 -->
  <path d="M310,70 L310,100 L250,90" stroke="#64b5f6" stroke-width="2" stroke-dasharray="3,3"/>
  
  <text x="175" y="190" text-anchor="middle" font-size="14" fill="#333">IoT 기반 스마트 인프라 시스템</text>
</svg>