<?xml version="1.0" encoding="UTF-8"?>
<svg width="500" height="300" viewBox="0 0 500 300" xmlns="http://www.w3.org/2000/svg">
  <rect width="500" height="300" fill="#0b1026" rx="10" ry="10"/>
  
  <!-- 밤하늘 -->
  <circle cx="50" cy="40" r="1" fill="#ffffff"/>
  <circle cx="120" cy="30" r="1.5" fill="#ffffff"/>
  <circle cx="200" cy="50" r="1" fill="#ffffff"/>
  <circle cx="270" cy="40" r="1.5" fill="#ffffff"/>
  <circle cx="350" cy="60" r="1" fill="#ffffff"/>
  <circle cx="420" cy="25" r="1.2" fill="#ffffff"/>
  <circle cx="470" cy="45" r="1" fill="#ffffff"/>
  <circle cx="80" cy="70" r="1" fill="#ffffff"/>
  <circle cx="150" cy="55" r="1.2" fill="#ffffff"/>
  <circle cx="300" cy="70" r="1" fill="#ffffff"/>
  <circle cx="380" cy="80" r="1.3" fill="#ffffff"/>
  <circle cx="450" cy="65" r="1" fill="#ffffff"/>
  
  <!-- 황룡강 -->
  <path d="M0,200 C100,180 200,220 300,180 C400,150 500,180 500,180 L500,300 L0,300 Z" fill="#0a3d62" opacity="0.7"/>
  
  <!-- 다리 -->
  <rect x="200" y="175" width="100" height="5" fill="#34495e"/>
  <rect x="210" y="180" width="5" height="20" fill="#34495e"/>
  <rect x="285" y="180" width="5" height="20" fill="#34495e"/>
  
  <!-- 보행도로 -->
  <path d="M0,230 L500,230" stroke="#34495e" stroke-width="5"/>
  
  <!-- 장성 건물들 실루엣 -->
  <rect x="50" y="150" width="40" height="80" fill="#000000"/>
  <path d="M50,150 L70,130 L90,150" fill="#000000"/>
  <rect x="120" y="170" width="30" height="60" fill="#000000"/>
  <rect x="160" y="160" width="20" height="70" fill="#000000"/>
  <rect x="320" y="160" width="50" height="70" fill="#000000"/>
  <path d="M320,160 L345,140 L370,160" fill="#000000"/>
  <rect x="390" y="180" width="35" height="50" fill="#000000"/>
  <rect x="440" y="170" width="25" height="60" fill="#000000"/>
  
  <!-- 황룡 형상의 경로 조명 -->
  <path d="M150,200 C200,160 300,160 350,200 C400,240 450,250 350,280 C250,250 300,240 350,200" stroke="#ffd700" stroke-width="3" fill="none" opacity="0.9" filter="blur(2px)"/>
  <path d="M150,200 C200,160 300,160 350,200 C400,240 450,250 350,280 C250,250 300,240 350,200" stroke="#ffffff" stroke-width="1" fill="none" opacity="0.6"/>
  
  <!-- 야간 경관 조명 포인트 -->
  <circle cx="70" cy="130" r="5" fill="#f39c12" opacity="0.8" filter="blur(2px)"/>
  <circle cx="70" cy="130" r="8" fill="#f39c12" opacity="0.3" filter="blur(3px)"/>
  
  <circle cx="345" cy="140" r="5" fill="#3498db" opacity="0.8" filter="blur(2px)"/>
  <circle cx="345" cy="140" r="8" fill="#3498db" opacity="0.3" filter="blur(3px)"/>
  
  <circle cx="210" cy="180" r="4" fill="#9b59b6" opacity="0.8" filter="blur(2px)"/>
  <circle cx="210" cy="180" r="7" fill="#9b59b6" opacity="0.3" filter="blur(3px)"/>
  
  <circle cx="285" cy="180" r="4" fill="#9b59b6" opacity="0.8" filter="blur(2px)"/>
  <circle cx="285" cy="180" r="7" fill="#9b59b6" opacity="0.3" filter="blur(3px)"/>
  
  <!-- 바닥 경로 조명 -->
  <circle cx="50" cy="230" r="3" fill="#e74c3c" opacity="0.8" filter="blur(1px)"/>
  <circle cx="100" cy="230" r="3" fill="#e74c3c" opacity="0.8" filter="blur(1px)"/>
  <circle cx="150" cy="230" r="3" fill="#e74c3c" opacity="0.8" filter="blur(1px)"/>
  <circle cx="200" cy="230" r="3" fill="#e74c3c" opacity="0.8" filter="blur(1px)"/>
  
  <circle cx="300" cy="230" r="3" fill="#2ecc71" opacity="0.8" filter="blur(1px)"/>
  <circle cx="350" cy="230" r="3" fill="#2ecc71" opacity="0.8" filter="blur(1px)"/>
  <circle cx="400" cy="230" r="3" fill="#2ecc71" opacity="0.8" filter="blur(1px)"/>
  <circle cx="450" cy="230" r="3" fill="#2ecc71" opacity="0.8" filter="blur(1px)"/>
  
  <text x="250" y="290" text-anchor="middle" font-size="16" fill="#ffffff">야간 디지털 경관 조명 시스템</text>
</svg>