<?xml version="1.0" encoding="UTF-8"?>
<svg width="500" height="300" viewBox="0 0 500 300" xmlns="http://www.w3.org/2000/svg">
  <!-- 정의 -->
  <defs>
    <!-- 그라데이션 -->
    <linearGradient id="skyGradient" x1="0%" y1="0%" x2="0%" y2="100%">
      <stop offset="0%" stop-color="#0a1128" />
      <stop offset="90%" stop-color="#1a2b50" />
    </linearGradient>
    
    <!-- 건물 그라데이션 -->
    <linearGradient id="buildingGradient" x1="0%" y1="0%" x2="0%" y2="100%">
      <stop offset="0%" stop-color="#000000" />
      <stop offset="100%" stop-color="#1a1a1a" />
    </linearGradient>
    
    <!-- 물 그라데이션 -->
    <linearGradient id="waterGradient" x1="0%" y1="0%" x2="0%" y2="100%">
      <stop offset="0%" stop-color="#0a3d62" />
      <stop offset="100%" stop-color="#0f5186" />
    </linearGradient>
    
    <!-- 황룡 빛 효과 필터 -->
    <filter id="dragonGlow" x="-20%" y="-20%" width="140%" height="140%">
      <feGaussianBlur in="SourceGraphic" stdDeviation="3" result="blur" />
      <feComposite in="SourceGraphic" in2="blur" operator="over" />
    </filter>
    
    <!-- 빛 효과 필터 -->
    <filter id="glow" x="-50%" y="-50%" width="200%" height="200%">
      <feGaussianBlur in="SourceGraphic" stdDeviation="2.5" result="blur" />
      <feComposite in="SourceGraphic" in2="blur" operator="over" />
    </filter>
    
    <!-- 스타 필터 -->
    <filter id="starGlow" x="-100%" y="-100%" width="300%" height="300%">
      <feGaussianBlur in="SourceGraphic" stdDeviation="0.5" result="blur" />
      <feComposite in="SourceGraphic" in2="blur" operator="over" />
    </filter>
    
    <!-- 반사 효과 -->
    <filter id="reflection" x="0" y="0" width="1" height="1">
      <feGaussianBlur in="SourceGraphic" stdDeviation="1" />
    </filter>
    
    <!-- 부드러운 불빛 효과 -->
    <radialGradient id="lightRadial1" cx="50%" cy="50%" r="50%" fx="50%" fy="50%">
      <stop offset="0%" stop-color="#f39c12" stop-opacity="1" />
      <stop offset="100%" stop-color="#f39c12" stop-opacity="0" />
    </radialGradient>
    
    <radialGradient id="lightRadial2" cx="50%" cy="50%" r="50%" fx="50%" fy="50%">
      <stop offset="0%" stop-color="#3498db" stop-opacity="1" />
      <stop offset="100%" stop-color="#3498db" stop-opacity="0" />
    </radialGradient>
    
    <radialGradient id="lightRadial3" cx="50%" cy="50%" r="50%" fx="50%" fy="50%">
      <stop offset="0%" stop-color="#9b59b6" stop-opacity="1" />
      <stop offset="100%" stop-color="#9b59b6" stop-opacity="0" />
    </radialGradient>
    
    <radialGradient id="lightRadial4" cx="50%" cy="50%" r="50%" fx="50%" fy="50%">
      <stop offset="0%" stop-color="#e74c3c" stop-opacity="1" />
      <stop offset="100%" stop-color="#e74c3c" stop-opacity="0" />
    </radialGradient>
    
    <radialGradient id="lightRadial5" cx="50%" cy="50%" r="50%" fx="50%" fy="50%">
      <stop offset="0%" stop-color="#2ecc71" stop-opacity="1" />
      <stop offset="100%" stop-color="#2ecc71" stop-opacity="0" />
    </radialGradient>
    
    <!-- 별 반짝임 애니메이션 -->
    <radialGradient id="starGradient" cx="50%" cy="50%" r="50%" fx="50%" fy="50%">
      <stop offset="0%" stop-color="#ffffff" stop-opacity="1" />
      <stop offset="100%" stop-color="#ffffff" stop-opacity="0" />
    </radialGradient>
  </defs>
  
  <!-- 배경 -->
  <rect width="500" height="300" fill="url(#skyGradient)" rx="10" ry="10"/>
  
  <!-- 밤하늘 별 -->
  <g class="stars">
    <!-- 고정 별 -->
    <circle cx="50" cy="40" r="1" fill="#ffffff" filter="url(#starGlow)"/>
    <circle cx="120" cy="30" r="1.5" fill="#ffffff" filter="url(#starGlow)"/>
    <circle cx="200" cy="50" r="1" fill="#ffffff" filter="url(#starGlow)"/>
    <circle cx="270" cy="40" r="1.5" fill="#ffffff" filter="url(#starGlow)"/>
    <circle cx="350" cy="60" r="1" fill="#ffffff" filter="url(#starGlow)"/>
    <circle cx="420" cy="25" r="1.2" fill="#ffffff" filter="url(#starGlow)"/>
    <circle cx="470" cy="45" r="1" fill="#ffffff" filter="url(#starGlow)"/>
    <circle cx="80" cy="70" r="1" fill="#ffffff" filter="url(#starGlow)"/>
    <circle cx="150" cy="55" r="1.2" fill="#ffffff" filter="url(#starGlow)"/>
    <circle cx="300" cy="70" r="1" fill="#ffffff" filter="url(#starGlow)"/>
    <circle cx="380" cy="80" r="1.3" fill="#ffffff" filter="url(#starGlow)"/>
    <circle cx="450" cy="65" r="1" fill="#ffffff" filter="url(#starGlow)"/>
    
    <!-- 깜빡이는 별 -->
    <circle cx="90" cy="35" r="1.2" fill="#ffffff" filter="url(#starGlow)" opacity="0.8">
      <animate attributeName="opacity" values="0.8;1;0.8;0.6;0.8" dur="3s" repeatCount="indefinite"/>
    </circle>
    <circle cx="230" cy="25" r="1.3" fill="#ffffff" filter="url(#starGlow)" opacity="0.8">
      <animate attributeName="opacity" values="0.8;0.6;0.8;1;0.8" dur="4s" repeatCount="indefinite"/>
    </circle>
    <circle cx="320" cy="45" r="1.4" fill="#ffffff" filter="url(#starGlow)" opacity="0.8">
      <animate attributeName="opacity" values="0.8;1;0.8;0.7;0.8" dur="5s" repeatCount="indefinite"/>
    </circle>
    <circle cx="400" cy="50" r="1.2" fill="#ffffff" filter="url(#starGlow)" opacity="0.8">
      <animate attributeName="opacity" values="0.8;0.7;0.8;1;0.8" dur="3.5s" repeatCount="indefinite"/>
    </circle>
    
    <!-- 작은 별들 -->
    <g opacity="0.7">
      <circle cx="40" cy="60" r="0.7" fill="#ffffff" filter="url(#starGlow)"/>
      <circle cx="130" cy="45" r="0.6" fill="#ffffff" filter="url(#starGlow)"/>
      <circle cx="180" cy="35" r="0.5" fill="#ffffff" filter="url(#starGlow)"/>
      <circle cx="250" cy="55" r="0.7" fill="#ffffff" filter="url(#starGlow)"/>
      <circle cx="330" cy="30" r="0.6" fill="#ffffff" filter="url(#starGlow)"/>
      <circle cx="370" cy="45" r="0.5" fill="#ffffff" filter="url(#starGlow)"/>
      <circle cx="440" cy="40" r="0.7" fill="#ffffff" filter="url(#starGlow)"/>
      <circle cx="480" cy="30" r="0.6" fill="#ffffff" filter="url(#starGlow)"/>
    </g>
  </g>
  
  <!-- 달 -->
  <circle cx="430" cy="40" r="15" fill="#ecf0f1" opacity="0.9"/>
  <circle cx="425" cy="35" r="5" fill="#bdc3c7" opacity="0.4"/>
  <circle cx="435" cy="45" r="3" fill="#bdc3c7" opacity="0.3"/>
  
  <!-- 황룡강 -->
  <path d="M0,200 C100,180 200,220 300,180 C400,150 500,180 500,180 L500,300 L0,300 Z" fill="url(#waterGradient)" opacity="0.8"/>
  
  <!-- 물 위 잔물결 -->
  <g opacity="0.4">
    <path d="M20,210 C30,208 40,212 50,210" stroke="#ffffff" stroke-width="0.5" fill="none">
      <animate attributeName="d" values="M20,210 C30,208 40,212 50,210; M20,212 C30,210 40,214 50,212; M20,210 C30,208 40,212 50,210" dur="3s" repeatCount="indefinite"/>
    </path>
    <path d="M100,220 C110,218 120,222 130,220" stroke="#ffffff" stroke-width="0.5" fill="none">
      <animate attributeName="d" values="M100,220 C110,218 120,222 130,220; M100,222 C110,220 120,224 130,222; M100,220 C110,218 120,222 130,220" dur="4s" repeatCount="indefinite"/>
    </path>
    <path d="M200,190 C210,188 220,192 230,190" stroke="#ffffff" stroke-width="0.5" fill="none">
      <animate attributeName="d" values="M200,190 C210,188 220,192 230,190; M200,192 C210,190 220,194 230,192; M200,190 C210,188 220,192 230,190" dur="3.5s" repeatCount="indefinite"/>
    </path>
    <path d="M300,185 C310,183 320,187 330,185" stroke="#ffffff" stroke-width="0.5" fill="none">
      <animate attributeName="d" values="M300,185 C310,183 320,187 330,185; M300,187 C310,185 320,189 330,187; M300,185 C310,183 320,187 330,185" dur="4.5s" repeatCount="indefinite"/>
    </path>
    <path d="M400,190 C410,188 420,192 430,190" stroke="#ffffff" stroke-width="0.5" fill="none">
      <animate attributeName="d" values="M400,190 C410,188 420,192 430,190; M400,192 C410,190 420,194 430,192; M400,190 C410,188 420,192 430,190" dur="3.7s" repeatCount="indefinite"/>
    </path>
  </g>
  
  <!-- 물 위 빛 반사 효과 -->
  <g opacity="0.3">
    <path d="M70,250 L90,210" stroke="#f39c12" stroke-width="1" opacity="0.4" transform="scale(1, -0.5) translate(0, -500)"/>
    <path d="M345,250 L345,210" stroke="#3498db" stroke-width="1" opacity="0.4" transform="scale(1, -0.5) translate(0, -500)"/>
    <path d="M210,250 L210,200" stroke="#9b59b6" stroke-width="1" opacity="0.4" transform="scale(1, -0.3) translate(0, -700)"/>
    <path d="M285,250 L285,200" stroke="#9b59b6" stroke-width="1" opacity="0.4" transform="scale(1, -0.3) translate(0, -700)"/>
  </g>
  
  <!-- 장성 건물들 실루엣 -->
  <g class="buildings">
    <!-- 건물 1 -->
    <rect x="50" y="150" width="40" height="80" fill="url(#buildingGradient)"/>
    <path d="M50,150 L70,130 L90,150" fill="url(#buildingGradient)"/>
    <!-- 건물 창문 -->
    <rect x="58" y="160" width="6" height="10" fill="#f5f5f5" opacity="0.1"/>
    <rect x="70" y="160" width="6" height="10" fill="#f5f5f5" opacity="0.1"/>
    <rect x="58" y="178" width="6" height="10" fill="#f5f5f5" opacity="0.1">
      <animate attributeName="opacity" values="0.1;0.3;0.1" dur="8s" repeatCount="indefinite"/>
    </rect>
    <rect x="70" y="178" width="6" height="10" fill="#f5f5f5" opacity="0.1"/>
    <rect x="58" y="196" width="6" height="10" fill="#f5f5f5" opacity="0.1"/>
    <rect x="70" y="196" width="6" height="10" fill="#f5f5f5" opacity="0.2">
      <animate attributeName="opacity" values="0.2;0.4;0.2" dur="10s" repeatCount="indefinite"/>
    </rect>
    
    <!-- 건물 2 -->
    <rect x="120" y="170" width="30" height="60" fill="url(#buildingGradient)"/>
    <!-- 건물 창문 -->
    <rect x="125" y="180" width="5" height="8" fill="#f5f5f5" opacity="0.15"/>
    <rect x="135" y="180" width="5" height="8" fill="#f5f5f5" opacity="0.15">
      <animate attributeName="opacity" values="0.15;0.25;0.15" dur="7s" repeatCount="indefinite"/>
    </rect>
    <rect x="125" y="195" width="5" height="8" fill="#f5f5f5" opacity="0.15"/>
    <rect x="135" y="195" width="5" height="8" fill="#f5f5f5" opacity="0.15"/>
    <rect x="125" y="210" width="5" height="8" fill="#f5f5f5" opacity="0.15">
      <animate attributeName="opacity" values="0.15;0.3;0.15" dur="9s" repeatCount="indefinite"/>
    </rect>
    <rect x="135" y="210" width="5" height="8" fill="#f5f5f5" opacity="0.15"/>
    
    <!-- 건물 3 -->
    <rect x="160" y="160" width="20" height="70" fill="url(#buildingGradient)"/>
    <!-- 건물 창문 -->
    <rect x="165" y="170" width="10" height="5" fill="#f5f5f5" opacity="0.1"/>
    <rect x="165" y="185" width="10" height="5" fill="#f5f5f5" opacity="0.1">
      <animate attributeName="opacity" values="0.1;0.2;0.1" dur="6s" repeatCount="indefinite"/>
    </rect>
    <rect x="165" y="200" width="10" height="5" fill="#f5f5f5" opacity="0.1"/>
    <rect x="165" y="215" width="10" height="5" fill="#f5f5f5" opacity="0.1"/>
    
    <!-- 건물 4 -->
    <rect x="320" y="160" width="50" height="70" fill="url(#buildingGradient)"/>
    <path d="M320,160 L345,140 L370,160" fill="url(#buildingGradient)"/>
    <!-- 건물 창문 -->
    <rect x="330" y="170" width="6" height="10" fill="#f5f5f5" opacity="0.1"/>
    <rect x="342" y="170" width="6" height="10" fill="#f5f5f5" opacity="0.1">
      <animate attributeName="opacity" values="0.1;0.3;0.1" dur="5s" repeatCount="indefinite"/>
    </rect>
    <rect x="354" y="170" width="6" height="10" fill="#f5f5f5" opacity="0.1"/>
    <rect x="330" y="188" width="6" height="10" fill="#f5f5f5" opacity="0.1"/>
    <rect x="342" y="188" width="6" height="10" fill="#f5f5f5" opacity="0.1"/>
    <rect x="354" y="188" width="6" height="10" fill="#f5f5f5" opacity="0.2">
      <animate attributeName="opacity" values="0.2;0.4;0.2" dur="7s" repeatCount="indefinite"/>
    </rect>
    <rect x="330" y="206" width="6" height="10" fill="#f5f5f5" opacity="0.1">
      <animate attributeName="opacity" values="0.1;0.3;0.1" dur="11s" repeatCount="indefinite"/>
    </rect>
    <rect x="342" y="206" width="6" height="10" fill="#f5f5f5" opacity="0.1"/>
    <rect x="354" y="206" width="6" height="10" fill="#f5f5f5" opacity="0.1"/>
    
    <!-- 건물 5 -->
    <rect x="390" y="180" width="35" height="50" fill="url(#buildingGradient)"/>
    <!-- 건물 창문 -->
    <rect x="397" y="190" width="6" height="8" fill="#f5f5f5" opacity="0.1"/>
    <rect x="410" y="190" width="6" height="8" fill="#f5f5f5" opacity="0.1">
      <animate attributeName="opacity" values="0.1;0.2;0.1" dur="8s" repeatCount="indefinite"/>
    </rect>
    <rect x="397" y="205" width="6" height="8" fill="#f5f5f5" opacity="0.1"/>
    <rect x="410" y="205" width="6" height="8" fill="#f5f5f5" opacity="0.1"/>
    
    <!-- 건물 6 -->
    <rect x="440" y="170" width="25" height="60" fill="url(#buildingGradient)"/>
    <!-- 건물 창문 -->
    <rect x="446" y="180" width="5" height="7" fill="#f5f5f5" opacity="0.1">
      <animate attributeName="opacity" values="0.1;0.3;0.1" dur="9s" repeatCount="indefinite"/>
    </rect>
    <rect x="455" y="180" width="5" height="7" fill="#f5f5f5" opacity="0.1"/>
    <rect x="446" y="194" width="5" height="7" fill="#f5f5f5" opacity="0.1"/>
    <rect x="455" y="194" width="5" height="7" fill="#f5f5f5" opacity="0.2">
      <animate attributeName="opacity" values="0.2;0.4;0.2" dur="6s" repeatCount="indefinite"/>
    </rect>
    <rect x="446" y="208" width="5" height="7" fill="#f5f5f5" opacity="0.1"/>
    <rect x="455" y="208" width="5" height="7" fill="#f5f5f5" opacity="0.1"/>
  </g>
  
  <!-- 다리 -->
  <g class="bridge">
    <rect x="200" y="175" width="100" height="5" fill="#34495e"/>
    
    <!-- 다리 기둥 -->
    <rect x="210" y="180" width="5" height="20" fill="#34495e"/>
    <rect x="285" y="180" width="5" height="20" fill="#34495e"/>
    
    <!-- 다리 기둥 야간 조명 -->
    <circle cx="212.5" cy="180" r="6" fill="url(#lightRadial3)" opacity="0.6" filter="url(#glow)">
      <animate attributeName="opacity" values="0.6;0.8;0.6" dur="2s" repeatCount="indefinite"/>
    </circle>
    <circle cx="287.5" cy="180" r="6" fill="url(#lightRadial3)" opacity="0.6" filter="url(#glow)">
      <animate attributeName="opacity" values="0.6;0.8;0.6" dur="2s" repeatCount="indefinite"/>
    </circle>
    
    <!-- 다리 레일 -->
    <rect x="200" y="172" width="100" height="1.5" fill="#576574"/>
    
    <!-- 다리 위 작은 장식등 -->
    <circle cx="230" cy="172" r="1" fill="#ffffff" opacity="0.8"/>
    <circle cx="250" cy="172" r="1" fill="#ffffff" opacity="0.8"/>
    <circle cx="270" cy="172" r="1" fill="#ffffff" opacity="0.8"/>
  </g>
  
  <!-- 보행도로 -->
  <path d="M0,230 L500,230" stroke="#34495e" stroke-width="5"/>
  
  <!-- 황룡 형상의 경로 조명 (개선된 버전) -->
  <g class="dragon-lights">
    <!-- 황룡 배경 발광 -->
    <path d="M150,200 C200,160 300,160 350,200 C400,240 450,250 350,280 C250,250 300,240 350,200" 
          stroke="#ffd700" stroke-width="8" fill="none" opacity="0.3" filter="url(#dragonGlow)">
      <animate attributeName="opacity" values="0.3;0.5;0.3" dur="3s" repeatCount="indefinite"/>
    </path>
    
    <!-- 황룡 주 발광선 -->
    <path d="M150,200 C200,160 300,160 350,200 C400,240 450,250 350,280 C250,250 300,240 350,200" 
          stroke="#ffd700" stroke-width="3" fill="none" opacity="0.9" filter="url(#dragonGlow)"/>
    
    <!-- 황룡 하이라이트 선 -->
    <path d="M150,200 C200,160 300,160 350,200 C400,240 450,250 350,280 C250,250 300,240 350,200" 
          stroke="#ffffff" stroke-width="1" fill="none" opacity="0.8"/>
    
    <!-- 황룡 움직이는 빛 입자 -->
    <circle cx="150" cy="200" r="2" fill="#ffffff" opacity="0.8">
      <animateMotion 
          path="M0,0 C50,-40 150,-40 200,0 C250,40 300,50 200,80 C100,50 150,40 200,0" 
          dur="5s" repeatCount="indefinite"/>
    </circle>
    
    <circle cx="150" cy="200" r="2" fill="#ffffff" opacity="0.8">
      <animateMotion 
          path="M0,0 C50,-40 150,-40 200,0 C250,40 300,50 200,80 C100,50 150,40 200,0" 
          dur="5s" begin="1.5s" repeatCount="indefinite"/>
    </circle>
    
    <circle cx="150" cy="200" r="2" fill="#ffffff" opacity="0.8">
      <animateMotion 
          path="M0,0 C50,-40 150,-40 200,0 C250,40 300,50 200,80 C100,50 150,40 200,0" 
          dur="5s" begin="3s" repeatCount="indefinite"/>
    </circle>
  </g>
  
  <!-- 야간 경관 조명 포인트 (개선된 효과) -->
  <g class="landmarks">
    <!-- 건물 1 꼭대기 -->
    <circle cx="70" cy="130" r="10" fill="url(#lightRadial1)" opacity="0.6" filter="url(#glow)">
      <animate attributeName="r" values="10;12;10" dur="3s" repeatCount="indefinite"/>
      <animate attributeName="opacity" values="0.6;0.8;0.6" dur="3s" repeatCount="indefinite"/>
    </circle>
    <circle cx="70" cy="130" r="5" fill="#f39c12" opacity="0.8" filter="url(#glow)"/>
    
    <!-- 건물 4 꼭대기 -->
    <circle cx="345" cy="140" r="10" fill="url(#lightRadial2)" opacity="0.6" filter="url(#glow)">
      <animate attributeName="r" values="10;12;10" dur="4s" repeatCount="indefinite"/>
      <animate attributeName="opacity" values="0.6;0.8;0.6" dur="4s" repeatCount="indefinite"/>
    </circle>
    <circle cx="345" cy="140" r="5" fill="#3498db" opacity="0.8" filter="url(#glow)"/>
  </g>
  
  <!-- 바닥 경로 조명 (개선된 효과) -->
  <g class="pathway-lights">
    <!-- 왼쪽 경로 -->
    <g>
      <circle cx="50" cy="230" r="6" fill="url(#lightRadial4)" opacity="0.6" filter="url(#glow)">
        <animate attributeName="opacity" values="0.6;0.8;0.6" dur="2s" repeatCount="indefinite" begin="0s"/>
      </circle>
      <circle cx="50" cy="230" r="3" fill="#e74c3c" opacity="0.8" filter="url(#glow)"/>
      
      <circle cx="100" cy="230" r="6" fill="url(#lightRadial4)" opacity="0.6" filter="url(#glow)">
        <animate attributeName="opacity" values="0.6;0.8;0.6" dur="2s" repeatCount="indefinite" begin="0.5s"/>
      </circle>
      <circle cx="100" cy="230" r="3" fill="#e74c3c" opacity="0.8" filter="url(#glow)"/>
      
      <circle cx="150" cy="230" r="6" fill="url(#lightRadial4)" opacity="0.6" filter="url(#glow)">
        <animate attributeName="opacity" values="0.6;0.8;0.6" dur="2s" repeatCount="indefinite" begin="1s"/>
      </circle>
      <circle cx="150" cy="230" r="3" fill="#e74c3c" opacity="0.8" filter="url(#glow)"/>
      
      <circle cx="200" cy="230" r="6" fill="url(#lightRadial4)" opacity="0.6" filter="url(#glow)">
        <animate attributeName="opacity" values="0.6;0.8;0.6" dur="2s" repeatCount="indefinite" begin="1.5s"/>
      </circle>
      <circle cx="200" cy="230" r="3" fill="#e74c3c" opacity="0.8" filter="url(#glow)"/>
    </g>
    
    <!-- 오른쪽 경로 -->
    <g>
      <circle cx="300" cy="230" r="6" fill="url(#lightRadial5)" opacity="0.6" filter="url(#glow)">
        <animate attributeName="opacity" values="0.6;0.8;0.6" dur="2s" repeatCount="indefinite" begin="0s"/>
      </circle>
      <circle cx="300" cy="230" r="3" fill="#2ecc71" opacity="0.8" filter="url(#glow)"/>
      
      <circle cx="350" cy="230" r="6" fill="url(#lightRadial5)" opacity="0.6" filter="url(#glow)">
        <animate attributeName="opacity" values="0.6;0.8;0.6" dur="2s" repeatCount="indefinite" begin="0.5s"/>
      </circle>
      <circle cx="350" cy="230" r="3" fill="#2ecc71" opacity="0.8" filter="url(#glow)"/>
      
      <circle cx="400" cy="230" r="6" fill="url(#lightRadial5)" opacity="0.6" filter="url(#glow)">

        <animate attributeName="opacity" values="0.6;0.8;0.6" dur="2s" repeatCount="indefinite" begin="1s"/>
      </circle>
      <circle cx="400" cy="230" r="3" fill="#2ecc71" opacity="0.8" filter="url(#glow)"/>
      
      <circle cx="450" cy="230" r="6" fill="url(#lightRadial5)" opacity="0.6" filter="url(#glow)">
        <animate attributeName="opacity" values="0.6;0.8;0.6" dur="2s" repeatCount="indefinite" begin="1.5s"/>
      </circle>
      <circle cx="450" cy="230" r="3" fill="#2ecc71" opacity="0.8" filter="url(#glow)"/>
    </g>
  </g>
  
  <!-- 디지털 제어 장치 시각화 -->
  <g class="control-panel">
    <rect x="10" y="10" width="80" height="30" rx="5" ry="5" fill="#2c3e50" opacity="0.7"/>
    <text x="50" y="25" text-anchor="middle" font-size="8" fill="#ecf0f1">디지털 제어 패널</text>
    
    <!-- 상태 표시등 -->
<g transform="translate(0,20)">
    <circle cx="20" cy="20" r="3" fill="#2ecc71">
      <animate attributeName="fill" values="#2ecc71;#27ae60;#2ecc71" dur="2s" repeatCount="indefinite"/>
    </circle>
    
    <!-- 신호 표시 -->
    <rect x="30" y="17" width="3" height="6" fill="#3498db"/>
    <rect x="35" y="15" width="3" height="8" fill="#3498db"/>
    <rect x="40" y="14" width="3" height="10" fill="#3498db"/>
    <rect x="45" y="16" width="3" height="8" fill="#3498db"/>
    <rect x="50" y="18" width="3" height="6" fill="#3498db"/>
    </g>
    <!-- 연결선 -->
    <path d="M90,25 C120,25 130,80 150,80" stroke="#3498db" stroke-width="1" fill="none" stroke-dasharray="2,2">
      <animate attributeName="stroke-dashoffset" values="4;0" dur="1s" repeatCount="indefinite"/>
    </path>
    <circle cx="150" cy="80" r="3" fill="#3498db"/>
  </g>
  
  <!-- 전체 시스템 기능 표시 아이콘 -->
  <g class="system-icons" opacity="0.8">
    <!-- 에너지 효율 아이콘 -->
    <g transform="translate(420, 15) scale(0.6)">
      <circle cx="0" cy="0" r="15" fill="#2c3e50" opacity="0.8"/>
      <path d="M-5,-8 L5,0 L-2,0 L5,8 L-5,0 L2,0 Z" fill="#f1c40f"/>
      <text x="0" y="20" text-anchor="middle" font-size="8" fill="#ecf0f1">에너지 효율</text>
    </g>
    
    <!-- 환경 모니터링 아이콘 -->
    <g transform="translate(460, 15) scale(0.6)">
      <circle cx="0" cy="0" r="15" fill="#2c3e50" opacity="0.8"/>
      <circle cx="-5" cy="-2" r="4" fill="#27ae60"/>
      <circle cx="5" cy="-2" r="4" fill="#2980b9"/>
      <circle cx="0" cy="6" r="4" fill="#8e44ad"/>
      <text x="0" y="20" text-anchor="middle" font-size="8" fill="#ecf0f1">환경 모니터링</text>
    </g>
  </g>
  
  <!-- 시간 표시 -->
  <g class="time-display">
    <rect x="430" y="260" width="60" height="20" rx="3" ry="3" fill="#34495e" opacity="0.8"/>
    <text x="460" y="274" text-anchor="middle" font-size="10" fill="#ecf0f1">22:45:18</text>
  </g>
  
  <!-- 타이틀 및 하단 정보 -->
  <rect x="125" y="275" width="250" height="20" rx="5" ry="5" fill="#34495e" opacity="0.8"/>
  <text x="250" y="290" text-anchor="middle" font-size="14" font-weight="bold" fill="#ffffff">야간 디지털 경관 조명 시스템</text>
  
  <!-- 하단 상태 표시 -->
  <text x="10" y="290" text-anchor="start" font-size="8" fill="#ecf0f1">시스템 상태: 정상 가동 중</text>
</svg>