<?xml version="1.0" encoding="UTF-8"?>
<svg width="150" height="150" viewBox="0 0 150 150" xmlns="http://www.w3.org/2000/svg">
  <rect width="150" height="150" fill="#f8f9fa" rx="10" ry="10"/>
  
  <!-- 공연 무대 -->
  <rect x="20" y="80" width="110" height="40" fill="#8e44ad" rx="5"/>
  <rect x="25" y="85" width="100" height="30" fill="#9b59b6" rx="3"/>
  <rect x="20" y="120" width="110" height="10" fill="#7d3c98"/>
  
  <!-- 무대 커튼 -->
  <path d="M20,80 Q75,60 130,80 V30 Q75,10 20,30 Z" fill="#e74c3c"/>
  <path d="M75,10 V80" stroke="#c0392b" stroke-width="2" stroke-dasharray="5,5"/>
  
  <!-- 공연자 -->
  <circle cx="50" cy="100" r="10" fill="#2c3e50"/>
  <line x1="50" y1="110" x2="50" y2="120" stroke="#2c3e50" stroke-width="5"/>
  <line x1="50" y1="110" x2="40" y2="125" stroke="#2c3e50" stroke-width="3"/>
  <line x1="50" y1="110" x2="60" y2="125" stroke="#2c3e50" stroke-width="3"/>
  <line x1="50" y1="115" x2="40" y2="110" stroke="#2c3e50" stroke-width="3"/>
  <line x1="50" y1="115" x2="60" y2="110" stroke="#2c3e50" stroke-width="3"/>
  
  <!-- 악기 연주자 -->
  <circle cx="75" cy="100" r="8" fill="#2c3e50"/>
  <line x1="75" y1="108" x2="75" y2="118" stroke="#2c3e50" stroke-width="4"/>
  <rect x="65" y="110" width="20" height="15" rx="2" fill="#f39c12"/>
  <line x1="68" y1="115" x2="82" y2="115" stroke="#2c3e50" stroke-width="1"/>
  <line x1="68" y1="118" x2="82" y2="118" stroke="#2c3e50" stroke-width="1"/>
  <line x1="68" y1="121" x2="82" y2="121" stroke="#2c3e50" stroke-width="1"/>
  
  <!-- 춤추는 사람 -->
  <circle cx="100" cy="95" r="10" fill="#2c3e50"/>
  <line x1="100" y1="105" x2="100" y2="120" stroke="#2c3e50" stroke-width="5"/>
  <line x1="100" y1="110" x2="110" y2="100" stroke="#2c3e50" stroke-width="3"/>
  <line x1="100" y1="110" x2="90" y2="100" stroke="#2c3e50" stroke-width="3"/>
  <line x1="100" y1="120" x2="110" y2="125" stroke="#2c3e50" stroke-width="3"/>
  <line x1="100" y1="120" x2="90" y2="125" stroke="#2c3e50" stroke-width="3"/>
  
  <!-- 불빛 -->
  <circle cx="40" cy="65" r="8" fill="#f1c40f" opacity="0.8"/>
  <circle cx="40" cy="65" r="12" fill="#f1c40f" opacity="0.3"/>
  
  <circle cx="75" cy="55" r="8" fill="#3498db" opacity="0.8"/>
  <circle cx="75" cy="55" r="12" fill="#3498db" opacity="0.3"/>
  
  <circle cx="110" cy="65" r="8" fill="#2ecc71" opacity="0.8"/>
  <circle cx="110" cy="65" r="12" fill="#2ecc71" opacity="0.3"/>
  
  <!-- 제목 -->
  <text x="75" y="140" text-anchor="middle" font-size="12" font-weight="bold" fill="#333">정기 공연</text>
</svg>