<?xml version="1.0" encoding="UTF-8"?>
<svg width="300" height="150" viewBox="0 0 300 150" xmlns="http://www.w3.org/2000/svg">
  <rect width="300" height="150" fill="#f8f9fa" rx="5" ry="5"/>
  
  <path d="M20,120 L280,120" stroke="#333" stroke-width="5" stroke-linecap="round"/>
  
  <!-- 버스 정류장 1 -->
  <rect x="50" y="80" width="40" height="40" rx="5" fill="#4169E1"/>
  <rect x="55" y="90" width="30" height="20" fill="#fff"/>
  <text x="70" y="105" text-anchor="middle" font-size="12" fill="#333">정류장</text>
  
  <!-- 버스 -->
  <rect x="120" y="90" width="80" height="30" rx="5" fill="#FFD700"/>
  <rect x="125" y="95" width="15" height="15" fill="#fff"/>
  <rect x="145" y="95" width="15" height="15" fill="#fff"/>
  <rect x="165" y="95" width="15" height="15" fill="#fff"/>
  <rect x="185" y="95" width="10" height="15" fill="#fff"/>
  <circle cx="135" cy="120" r="8" fill="#333"/>
  <circle cx="185" cy="120" r="8" fill="#333"/>
  
  <!-- 버스 정류장 2 -->
  <rect x="230" y="80" width="40" height="40" rx="5" fill="#4169E1"/>
  <rect x="235" y="90" width="30" height="20" fill="#fff"/>
  <text x="250" y="105" text-anchor="middle" font-size="12" fill="#333">정류장</text>
  
  <text x="150" y="50" text-anchor="middle" font-size="14" fill="#333">대중교통 연계체계</text>
</svg>