<?xml version="1.0" encoding="UTF-8"?>
<svg width="300" height="200" viewBox="0 0 300 200" xmlns="http://www.w3.org/2000/svg">
  <rect width="300" height="200" fill="#f1f9f2" rx="10" ry="10"/>
  
  <!-- 꽃길 -->
  <path d="M30,150 C80,140 150,160 250,140" stroke="#85c1e9" stroke-width="5" fill="none"/>
  
  <!-- 벚꽃 나무 -->
  <path d="M70,150 L70,100" stroke="#8d6e63" stroke-width="4"/>
  <circle cx="60" cy="90" r="8" fill="#f8bbd0"/>
  <circle cx="75" cy="85" r="8" fill="#f8bbd0"/>
  <circle cx="85" cy="95" r="8" fill="#f8bbd0"/>
  <circle cx="70" cy="80" r="8" fill="#f8bbd0"/>
  <circle cx="55" cy="100" r="8" fill="#f8bbd0"/>
  
  <!-- 튤립 -->
  <path d="M120,150 L120,130" stroke="#2e7d32" stroke-width="2"/>
  <path d="M120,130 C115,120 115,110 120,100 C125,110 125,120 120,130" fill="#e53935"/>
  <path d="M110,150 L110,135" stroke="#2e7d32" stroke-width="2"/>
  <path d="M110,135 C105,125 105,115 110,105 C115,115 115,125 110,135" fill="#ffeb3b"/>
  <path d="M130,150 L130,135" stroke="#2e7d32" stroke-width="2"/>
  <path d="M130,135 C125,125 125,115 130,105 C135,115 135,125 130,135" fill="#ff9800"/>
  
  <!-- 개나리 -->
  <path d="M190,150 C180,140 180,120 190,110" stroke="#7cb342" stroke-width="2" fill="none"/>
  <path d="M190,150 C200,140 200,120 190,110" stroke="#7cb342" stroke-width="2" fill="none"/>
  <circle cx="185" cy="115" r="5" fill="#ffd600"/>
  <circle cx="195" cy="115" r="5" fill="#ffd600"/>
  <circle cx="180" cy="125" r="5" fill="#ffd600"/>
  <circle cx="190" cy="125" r="5" fill="#ffd600"/>
  <circle cx="200" cy="125" r="5" fill="#ffd600"/>
  <circle cx="185" cy="135" r="5" fill="#ffd600"/>
  <circle cx="195" cy="135" r="5" fill="#ffd600"/>
  
  <!-- 모란 -->
  <path d="M250,150 L250,130" stroke="#2e7d32" stroke-width="3"/>
  <path d="M240,120 C240,110 250,100 260,110 C270,100 280,110 280,120 C280,130 270,135 260,130 C250,135 240,130 240,120" fill="#e91e63"/>
  
  <!-- 봄 글자 -->
  <text x="150" y="40" text-anchor="middle" font-size="24" font-weight="bold" fill="#43a047">봄 시즌 프로그램</text>
  
  <!-- 해설사 -->
  <g transform="translate(70, 180)">
    <circle cx="0" cy="-15" r="7" fill="#3f51b5"/>
    <path d="M0,-8 L0,0" stroke="#3f51b5" stroke-width="3"/>
    <path d="M0,-2 L-5,5" stroke="#3f51b5" stroke-width="2"/>
    <path d="M0,-2 L5,5" stroke="#3f51b5" stroke-width="2"/>
  </g>
  
  <!-- 방문객 -->
  <g transform="translate(90, 180)">
    <circle cx="0" cy="-15" r="5" fill="#ff5722"/>
    <path d="M0,-10 L0,-2" stroke="#ff5722" stroke-width="2"/>
    <path d="M0,-5 L-4,0" stroke="#ff5722" stroke-width="2"/>
    <path d="M0,-5 L4,0" stroke="#ff5722" stroke-width="2"/>
  </g>
  
  <!-- 카메라 -->
  <g transform="translate(150, 180)">
    <rect x="-8" y="-18" width="16" height="12" rx="2" fill="#616161"/>
    <circle cx="0" cy="-12" r="4" fill="#9e9e9e"/>
    <rect x="-6" y="-20" width="12" height="2" fill="#9e9e9e"/>
    <rect x="6" y="-16" width="2" height="4" fill="#9e9e9e"/>
  </g>
  
  <!-- 밤 풍경 -->
  <g transform="translate(220, 180)">
    <circle cx="0" cy="-15" r="7" fill="#283593" opacity="0.8"/>
    <circle cx="0" cy="-15" r="5" fill="#1a237e"/>
    <circle cx="2" cy="-17" r="1" fill="#fff"/>
    <circle cx="-2" cy="-14" r="1" fill="#fff"/>
    <path d="M-7,-15 L7,-15" stroke="#ffea00" stroke-width="1" stroke-dasharray="1,1"/>
  </g>
  
  <!-- 사각형 프레임들 -->
  <rect x="65" y="70" width="50" height="30" stroke="#43a047" stroke-width="2" fill="none" stroke-dasharray="3,2"/>
  <rect x="140" y="75" width="40" height="40" stroke="#43a047" stroke-width="2" fill="none" stroke-dasharray="3,2"/>
  <rect x="210" y="65" width="60" height="35" stroke="#43a047" stroke-width="2" fill="none" stroke-dasharray="3,2"/>
</svg>