<?xml version="1.0" encoding="UTF-8"?>
<svg width="300" height="150" viewBox="0 0 300 150" xmlns="http://www.w3.org/2000/svg">
  <rect width="300" height="150" fill="#f8f9fa" rx="5" ry="5"/>
  
  <path d="M50,120 L250,120" stroke="#FFD700" stroke-width="15" stroke-linecap="round"/>
  <path d="M50,120 L250,120" stroke="#8B4513" stroke-width="15" stroke-dasharray="1,15" stroke-linecap="round"/>
  
  <circle cx="80" cy="50" r="15" fill="#4169E1"/>
  <path d="M80,65 L75,90 L65,115 M80,65 L85,80 L100,95 L110,115" stroke="#4169E1" stroke-width="4" fill="none"/>
  
  <circle cx="160" cy="50" r="15" fill="#DC3545"/>
  <path d="M160,65 L155,90 L145,115 M160,65 L165,80 L180,95 L190,115" stroke="#DC3545" stroke-width="4" fill="none"/>
  
  <circle cx="240" cy="50" r="15" fill="#28A745"/>
  <path d="M240,65 L235,90 L225,115 M240,65 L245,80 L260,95 L270,115" stroke="#28A745" stroke-width="4" fill="none"/>
  
  <text x="150" y="140" text-anchor="middle" font-size="14" fill="#333">도보 관광 코스</text>
</svg>