<?xml version="1.0" encoding="UTF-8" standalone="no"?>
<svg width="150" height="150" xmlns="http://www.w3.org/2000/svg">
  <circle cx="75" cy="75" r="75" fill="#ddffdd" />
  
  <!-- 백양이 캐릭터 -->
  <g transform="translate(75, 75) scale(0.5)">
    <!-- 승려 두건 -->
    <path d="M-35,-40 C-25,-55 25,-55 35,-40 C40,-35 40,-30 35,-25 L-35,-25 C-40,-30 -40,-35 -35,-40 Z" fill="#669933" stroke="#000" stroke-width="2" />
    
    <!-- 얼굴 -->
    <circle cx="0" cy="0" r="35" fill="#ffeedd" stroke="#333" stroke-width="1" />
    
    <!-- 눈 -->
    <path d="M-15,-10 C-10,-5 -5,-5 0,-10" fill="none" stroke="#000" stroke-width="1" />
    <path d="M15,-10 C10,-5 5,-5 0,-10" fill="none" stroke="#000" stroke-width="1" />
    
    <!-- 입 -->
    <path d="M-10,10 C-5,15 5,15 10,10" fill="none" stroke="#000" stroke-width="1" />
    
    <!-- 승복 -->
    <path d="M-35,20 L-50,80 L50,80 L35,20 C25,30 10,35 0,35 C-10,35 -25,30 -35,20 Z" fill="#669933" stroke="#333" stroke-width="2" />
    
    <!-- 팔 -->
    <path d="M-30,30 C-40,40 -45,50 -45,60" fill="none" stroke="#669933" stroke-width="15" />
    <path d="M30,30 C40,40 45,50 45,60" fill="none" stroke="#669933" stroke-width="15" />
    
    <!-- 염주 -->
    <circle cx="0" cy="50" r="15" fill="none" stroke="#aa7744" stroke-width="3" />
    <circle cx="0" cy="50" r="10" fill="none" stroke="#aa7744" stroke-width="3" />
    <circle cx="0" cy="50" r="5" fill="none" stroke="#aa7744" stroke-width="3" />
  </g>
</svg>
