<?xml version="1.0" encoding="UTF-8" standalone="no"?>
<svg width="300" height="200" xmlns="http://www.w3.org/2000/svg">
  <rect width="300" height="200" fill="#ffeeb2" />
  
  <!-- 황룡 로고 -->
  <g transform="translate(150, 70) scale(0.8)">
    <path d="M-30,-30 C-20,-40 0,-45 20,-40 C40,-35 50,-20 50,-10 C50,0 45,10 35,15 C25,20 0,25 -20,20 C-40,15 -40,0 -30,-30 Z" fill="#ffcc00" stroke="#cc9900" stroke-width="3" />
    <path d="M40,-15 C50,-10 60,-5 70,0 C80,5 85,15 80,25 C75,35 60,40 45,35 C30,30 25,15 40,-15 Z" fill="#ffcc00" stroke="#cc9900" stroke-width="3" />
    <circle cx="-10" cy="-15" r="3" fill="#333" />
    <path d="M50,0 C60,10 65,30 55,50 C45,70 30,80 15,75 C0,70 -5,50 5,30 C15,10 40,-10 50,0 Z" fill="#ffcc00" stroke="#cc9900" stroke-width="3" />
    <path d="M-10,45 C0,60 15,70 30,65 C45,60 55,40 50,20 C60,30 65,50 55,70 C45,90 20,100 0,90 C-20,80 -25,60 -10,45 Z" fill="#ffcc00" stroke="#cc9900" stroke-width="3" />
  </g>
  
  <!-- 텍스트 -->
  <text x="150" y="150" font-family="Arial, sans-serif" font-size="16" text-anchor="middle" font-weight="bold" fill="#333">황룡의 숨결을 따라</text>
  <text x="150" y="170" font-family="Arial, sans-serif" font-size="12" text-anchor="middle" fill="#666">Following the Dragon's Breath</text>
</svg>
