<?xml version="1.0" encoding="UTF-8" standalone="no"?>
<svg width="300" height="200" xmlns="http://www.w3.org/2000/svg">
  <rect width="300" height="200" fill="#e8e8e8" />
  
  <!-- 태블릿 디바이스 -->
  <rect x="60" y="30" width="180" height="120" rx="5" fill="#333" />
  <rect x="65" y="35" width="170" height="110" rx="3" fill="#fff" />
  
  <!-- 화면 내용 -->
  <rect x="75" y="45" width="150" height="80" fill="#ffcc00" rx="2" />
  <path d="M150,65 C160,60 170,60 175,70 C180,80 175,90 165,95 C155,100 145,95 140,85 C135,75 140,70 150,65 Z" fill="#fff" />
  <circle cx="160" cy="75" r="3" fill="#333" />
  
  <!-- 웹툰 패널 -->
  <rect x="80" y="50" width="40" height="30" rx="2" fill="#fff" stroke="#333" stroke-width="1" />
  <rect x="125" y="50" width="40" height="30" rx="2" fill="#fff" stroke="#333" stroke-width="1" />
  <rect x="170" y="50" width="40" height="30" rx="2" fill="#fff" stroke="#333" stroke-width="1" />
  <rect x="80" y="85" width="130" height="30" rx="2" fill="#fff" stroke="#333" stroke-width="1" />
  
  <!-- 오디오 아이콘 -->
  <circle cx="125" cy="145" r="10" fill="#4477aa" />
  <rect x="122" y="140" width="6" height="10" rx="1" fill="#fff" />
  <path d="M132,142 C136,145 136,150 132,153" fill="none" stroke="#fff" stroke-width="1" />
  <path d="M135,140 C142,145 142,150 135,155" fill="none" stroke="#fff" stroke-width="1" />
  
  <!-- 비디오 아이콘 -->
  <circle cx="175" cy="145" r="10" fill="#cc5544" />
  <polygon points="170,140 182,145 170,150" fill="#fff" />
  
  <!-- 제목 -->
  <text x="150" y="180" font-family="Arial, sans-serif" font-size="14" text-anchor="middle" font-weight="bold" fill="#333">황룡의 전설 웹툰, 오디오북</text>
</svg>
