<?xml version="1.0" encoding="UTF-8" standalone="no"?>
<svg width="150" height="150" xmlns="http://www.w3.org/2000/svg">
  <circle cx="75" cy="75" r="75" fill="#ffdddd" />
  
  <!-- 길동이 캐릭터 -->
  <g transform="translate(75, 75) scale(0.5)">
    <!-- 두건 -->
    <path d="M-40,-50 C-30,-70 30,-70 40,-50 C45,-40 45,-30 40,-20 L-40,-20 C-45,-30 -45,-40 -40,-50 Z" fill="#333" stroke="#000" stroke-width="2" />
    
    <!-- 얼굴 -->
    <circle cx="0" cy="0" r="35" fill="#ffeedd" stroke="#333" stroke-width="1" />
    
    <!-- 눈 -->
    <ellipse cx="-12" cy="-10" rx="5" ry="4" fill="#fff" stroke="#000" stroke-width="1" />
    <ellipse cx="12" cy="-10" rx="5" ry="4" fill="#fff" stroke="#000" stroke-width="1" />
    <circle cx="-12" cy="-10" r="2" fill="#000" />
    <circle cx="12" cy="-10" r="2" fill="#000" />
    
    <!-- 입 -->
    <path d="M-10,10 C-5,15 5,15 10,10" fill="none" stroke="#000" stroke-width="2" />
    
    <!-- 도복 상의 -->
    <path d="M-35,20 L-40,80 L40,80 L35,20 C25,30 10,35 0,35 C-10,35 -25,30 -35,20 Z" fill="#cc5544" stroke="#333" stroke-width="2" />
    <path d="M-20,20 L-20,70 M20,20 L20,70" fill="none" stroke="#333" stroke-width="2" />
    
    <!-- 팔 -->
    <path d="M-30,30 C-40,40 -45,50 -45,60" fill="none" stroke="#cc5544" stroke-width="15" />
    <path d="M30,30 C40,40 45,50 45,60" fill="none" stroke="#cc5544" stroke-width="15" />
    
    <!-- 활 -->
    <path d="M-45,60 C-50,50 -50,40 -45,30 C-40,20 -35,15 -30,10" fill="none" stroke="#aa7744" stroke-width="3" />
    <line x1="-45" y1="45" x2="-30" y2="45" stroke="#aa7744" stroke-width="2" />
  </g>
</svg>
