<?xml version="1.0" encoding="UTF-8" standalone="no"?>
<svg width="150" height="150" xmlns="http://www.w3.org/2000/svg">
  <circle cx="75" cy="75" r="75" fill="#ffeeaa" />
  
  <!-- 황룡 캐릭터 -->
  <g transform="translate(75, 75) scale(0.5)">
    <!-- 몸통 -->
    <path d="M-50,-20 C-30,-50 0,-60 30,-50 C60,-40 80,-10 90,20 C100,50 90,80 70,90 C50,100 0,110 -30,90 C-60,70 -70,30 -50,-20 Z" fill="#ffcc00" stroke="#cc9900" stroke-width="3" />
    
    <!-- 머리 -->
    <path d="M-40,-30 C-30,-45 -10,-50 10,-45 C30,-40 40,-25 40,-15 C40,-5 35,0 25,5 C15,10 -5,15 -25,10 C-45,5 -50,-15 -40,-30 Z" fill="#ffdd22" stroke="#cc9900" stroke-width="3" />
    
    <!-- 눈 -->
    <circle cx="-15" cy="-20" r="5" fill="#fff" stroke="#000" stroke-width="1" />
    <circle cx="15" cy="-20" r="5" fill="#fff" stroke="#000" stroke-width="1" />
    <circle cx="-15" cy="-20" r="2" fill="#000" />
    <circle cx="15" cy="-20" r="2" fill="#000" />
    
    <!-- 입 -->
    <path d="M-10,-5 C-5,-3 5,-3 10,-5" fill="none" stroke="#000" stroke-width="2" />
    
    <!-- 수염 -->
    <path d="M-25,-15 C-35,-10 -45,-5 -55,0" fill="none" stroke="#cc9900" stroke-width="2" />
    <path d="M-23,-10 C-33,-5 -43,0 -53,5" fill="none" stroke="#cc9900" stroke-width="2" />
    <path d="M25,-15 C35,-10 45,-5 55,0" fill="none" stroke="#cc9900" stroke-width="2" />
    <path d="M23,-10 C33,-5 43,0 53,5" fill="none" stroke="#cc9900" stroke-width="2" />
    
    <!-- 뿔 -->
    <path d="M-20,-30 C-25,-40 -25,-50 -20,-55 C-15,-60 -5,-60 0,-55" fill="none" stroke="#cc9900" stroke-width="3" />
    <path d="M20,-30 C25,-40 25,-50 20,-55 C15,-60 5,-60 0,-55" fill="none" stroke="#cc9900" stroke-width="3" />
    
    <!-- 꼬리 -->
    <path d="M70,50 C90,40 100,20 90,0 C80,-20 60,-30 40,-20 C50,-10 55,10 50,30 C45,50 30,60 15,55 C0,50 -5,30 5,10 C15,-10 40,-30 50,-20" fill="#ffcc00" stroke="#cc9900" stroke-width="3" />
  </g>
</svg>
