<?xml version="1.0" encoding="UTF-8" standalone="no"?>
<svg width="250" height="150" xmlns="http://www.w3.org/2000/svg">
  <rect width="250" height="150" fill="#f0f0f0" />
  
  <!-- TV 프레임 -->
  <rect x="55" y="30" width="140" height="90" rx="5" fill="#333" />
  <rect x="65" y="40" width="120" height="70" fill="#fff" />
  
  <!-- TV 하단 -->
  <rect x="115" y="120" width="20" height="10" rx="2" fill="#333" />
  <rect x="105" y="130" width="40" height="5" rx="2" fill="#333" />
  
  <!-- 화면 내용 -->
  <rect x="65" y="40" width="120" height="15" fill="#4477aa" />
  <text x="125" y="52" font-family="Arial, sans-serif" font-size="10" text-anchor="middle" fill="#fff" font-weight="bold">장성 이야기 여행</text>
  
  <!-- 영상 씬 -->
  <rect x="75" y="60" width="50" height="40" fill="#ffcc00" />
  <path d="M85,70 C80,75 80,85 85,90 C90,95 100,95 105,90 C110,85 110,75 105,70 C100,65 90,65 85,70 Z" fill="#fff" stroke="#cc9900" stroke-width="1" />
  <circle cx="95" cy="80" r="2" fill="#333" />
  
  <!-- 황룡강 씬 -->
  <rect x="135" y="60" width="40" height="20" fill="#88ccff" />
  <path d="M135,70 C140,65 145,75 150,70 C155,65 160,75 165,70 C170,65 175,75 175,70" fill="none" stroke="#4477aa" stroke-width="2" />
  
  <!-- 나무 -->
  <path d="M145,80 L145,95 M140,80 L150,80" fill="none" stroke="#669933" stroke-width="2" />
  <path d="M165,80 L165,95 M160,80 L170,80" fill="none" stroke="#669933" stroke-width="2" />
  
  <!-- 마이크 -->
  <circle cx="120" cy="90" r="5" fill="#999" />
  <rect x="117" y="95" width="6" height="10" fill="#333" />
  
  <!-- 카메라 -->
  <path d="M20,70 L40,60 L40,80 L20,70 Z" fill="#333" />
  <rect x="40" y="55" width="15" height="30" fill="#333" rx="2" />
  <circle cx="30" cy="70" r="8" fill="#333" stroke="#666" stroke-width="1" />
  <circle cx="30" cy="70" r="4" fill="#999" />
  <path d="M20,50 L20,90" fill="none" stroke="#333" stroke-width="3" />
  <path d="M20,50 L10,30 L30,30 Z" fill="#333" />
  
  <!-- 제목 -->
  <text x="125" y="145" font-family="Arial, sans-serif" font-size="12" text-anchor="middle" fill="#333" font-weight="bold">지역 방송 프로그램</text>
</svg>
