<?xml version="1.0" encoding="UTF-8" standalone="no"?>
<svg width="350" height="200" xmlns="http://www.w3.org/2000/svg">
  <rect width="350" height="200" fill="#f8f8f8" />
  
  <!-- 제목 -->
  <text x="175" y="30" font-family="Arial, sans-serif" font-size="16" text-anchor="middle" font-weight="bold" fill="#333">황룡 캐릭터 상품</text>
  
  <!-- 상품 1: 인형 -->
  <g transform="translate(70, 100) scale(0.4)">
    <path d="M-30,-30 C-20,-40 0,-45 20,-40 C40,-35 50,-20 50,-10 C50,0 45,10 35,15 C25,20 0,25 -20,20 C-40,15 -40,0 -30,-30 Z" fill="#ffcc00" stroke="#cc9900" stroke-width="3" />
    <path d="M40,-15 C50,-10 60,-5 70,0 C80,5 85,15 80,25 C75,35 60,40 45,35 C30,30 25,15 40,-15 Z" fill="#ffcc00" stroke="#cc9900" stroke-width="3" />
    <circle cx="-10" cy="-15" r="3" fill="#333" />
    <path d="M50,0 C60,10 65,30 55,50 C45,70 30,80 15,75 C0,70 -5,50 5,30 C15,10 40,-10 50,0 Z" fill="#ffcc00" stroke="#cc9900" stroke-width="3" />
  </g>
  <rect x="50" y="60" width="40" height="80" rx="5" fill="#eee" stroke="#333" stroke-width="1" />
  
  <!-- 상품 2: 머그컵 -->
  <g transform="translate(140, 100)">
    <path d="M-20,10 L-15,-25 L15,-25 L20,10 C25,10 30,15 30,20 C30,25 25,30 20,30 L-20,30 C-25,30 -30,25 -30,20 C-30,15 -25,10 -20,10 Z" fill="#fff" stroke="#333" stroke-width="1" />
    <path d="M-15,-25 C-15,-30 -10,-35 -5,-35 L5,-35 C10,-35 15,-30 15,-25" fill="none" stroke="#333" stroke-width="1" />
    <path d="M-10,-15 L10,-15 M-10,-5 L10,-5 M-12,5 L12,5 M-12,15 L12,15" stroke="#ffcc00" stroke-width="2" />
    <circle cx="0" cy="0" r="7" fill="#ffcc00" />
  </g>
  
  <!-- 상품 3: 티셔츠 -->
  <g transform="translate(210, 100)">
    <path d="M-25,-20 L25,-20 L20,30 L-20,30 Z" fill="#fff" stroke="#333" stroke-width="1" />
    <path d="M-25,-20 L-35,-10 L-35,0 L-25,5 M25,-20 L35,-10 L35,0 L25,5" fill="none" stroke="#333" stroke-width="1" />
    <path d="M-5,-20 L-5,-30 C-5,-35 5,-35 5,-30 L5,-20" fill="none" stroke="#333" stroke-width="1" />
    <circle cx="0" cy="0" r="10" fill="#ffcc00" />
    <path d="M-5,0 L5,0 M0,-5 L0,5" stroke="#333" stroke-width="1" />
  </g>
  
  <!-- 상품 4: 키링 -->
  <g transform="translate(280, 100)">
    <circle cx="0" cy="-15" r="5" fill="#ddd" stroke="#333" stroke-width="1" />
    <path d="M0,-10 L0,0" stroke="#333" stroke-width="1" />
    <path d="M-15,0 C-15,10 -10,20 0,20 C10,20 15,10 15,0 C15,-10 10,-20 0,-20 C-10,-20 -15,-10 -15,0 Z" fill="#ffcc00" stroke="#cc9900" stroke-width="2" />
    <circle cx="-5" cy="-5" r="2" fill="#333" />
    <circle cx="5" cy="-5" r="2" fill="#333" />
    <path d="M-5,5 C-2,8 2,8 5,5" fill="none" stroke="#333" stroke-width="1" />
  </g>
  
  <!-- 설명 텍스트 -->
  <text x="70" y="160" font-family="Arial, sans-serif" font-size="10" text-anchor="middle" fill="#333">인형</text>
  <text x="140" y="160" font-family="Arial, sans-serif" font-size="10" text-anchor="middle" fill="#333">머그컵</text>
  <text x="210" y="160" font-family="Arial, sans-serif" font-size="10" text-anchor="middle" fill="#333">티셔츠</text>
  <text x="280" y="160" font-family="Arial, sans-serif" font-size="10" text-anchor="middle" fill="#333">키링</text>
</svg>
