<?xml version="1.0" encoding="UTF-8" standalone="no"?>
<svg width="250" height="150" xmlns="http://www.w3.org/2000/svg">
  <rect width="250" height="150" fill="#fff5f5" />
  
  <!-- 배경 요소 -->
  <path d="M0,120 L250,120 L250,150 L0,150 Z" fill="#333" />
  <path d="M0,110 C50,100 100,115 150,105 C200,95 250,110 250,115 L250,120 L0,120 Z" fill="#669933" />
  
  <!-- 도로 -->
  <rect x="100" y="120" width="50" height="30" fill="#999" />
  <line x1="125" y1="120" x2="125" y2="150" stroke="#fff" stroke-width="2" stroke-dasharray="5,3" />
  
  <!-- 광고판 -->
  <rect x="150" y="40" width="80" height="50" fill="#fff" stroke="#333" stroke-width="1" />
  <rect x="155" y="45" width="70" height="40" fill="#ffcc00" />
  <text x="190" y="65" font-family="Arial, sans-serif" font-size="7" text-anchor="middle" font-weight="bold" fill="#333">황룡의 숨결을</text>
  <text x="190" y="75" font-family="Arial, sans-serif" font-size="7" text-anchor="middle" font-weight="bold" fill="#333">따라</text>
  <path d="M190,90 L190,110" fill="none" stroke="#333" stroke-width="3" />
  
  <!-- 관광안내소 -->
  <rect x="20" y="70" width="60" height="40" fill="#4477aa" />
  <rect x="25" y="75" width="20" height="25" fill="#fff" />
  <rect x="55" y="75" width="20" height="25" fill="#fff" />
  <rect x="45" y="90" width="10" height="20" fill="#fff" />
  <path d="M20,70 L50,50 L80,70" fill="#cc5544" />
  <rect x="35" y="60" width="30" height="10" fill="#fff" />
  <text x="50" y="68" font-family="Arial, sans-serif" font-size="6" text-anchor="middle" fill="#333">관광안내소</text>
</svg>
