<?xml version="1.0" encoding="UTF-8" standalone="no"?>
<svg width="150" height="150" xmlns="http://www.w3.org/2000/svg">
  <circle cx="75" cy="75" r="75" fill="#e0ecff" />
  
  <!-- 서원이 캐릭터 -->
  <g transform="translate(75, 75) scale(0.5)">
    <!-- 갓 -->
    <path d="M-40,-60 L40,-60 L40,-50 L-40,-50 Z" fill="#333" />
    <path d="M-30,-50 L30,-50 L20,-35 L-20,-35 Z" fill="#333" />
    
    <!-- 얼굴 -->
    <circle cx="0" cy="-10" r="35" fill="#ffeedd" stroke="#333" stroke-width="1" />
    
    <!-- 눈 -->
    <ellipse cx="-12" cy="-15" rx="4" ry="5" fill="#fff" stroke="#000" stroke-width="1" />
    <ellipse cx="12" cy="-15" rx="4" ry="5" fill="#fff" stroke="#000" stroke-width="1" />
    <circle cx="-12" cy="-15" r="2" fill="#000" />
    <circle cx="12" cy="-15" r="2" fill="#000" />
    
    <!-- 입 -->
    <path d="M-10,5 C-5,10 5,10 10,5" fill="none" stroke="#000" stroke-width="1" />
    
    <!-- 수염 -->
    <path d="M-15,0 C-20,5 -25,7 -30,8" fill="none" stroke="#333" stroke-width="1" />
    <path d="M0,10 C0,15 0,20 0,25" fill="none" stroke="#333" stroke-width="1" />
    <path d="M15,0 C20,5 25,7 30,8" fill="none" stroke="#333" stroke-width="1" />
    
    <!-- 도포 -->
    <path d="M-35,-5 L-50,80 L50,80 L35,-5 C25,10 10,15 0,15 C-10,15 -25,10 -35,-5 Z" fill="#4477aa" stroke="#333" stroke-width="2" />
    
    <!-- 팔 -->
    <path d="M-30,10 C-40,20 -45,30 -45,40" fill="none" stroke="#4477aa" stroke-width="15" />
    <path d="M30,10 C40,20 45,30 45,40" fill="none" stroke="#4477aa" stroke-width="15" />
    
    <!-- 책 -->
    <rect x="-20" y="30" width="40" height="30" fill="#aa7744" stroke="#553311" stroke-width="2" />
    <line x1="-20" y1="45" x2="20" y2="45" stroke="#553311" stroke-width="2" />
  </g>
</svg>
