<?xml version="1.0" encoding="UTF-8" standalone="no"?>
<svg width="600" height="400" xmlns="http://www.w3.org/2000/svg">
  <!-- 정의 -->
  <defs>
    <!-- 그라데이션 -->
    <linearGradient id="bgGradient" x1="0%" y1="0%" x2="0%" y2="100%">
      <stop offset="0%" stop-color="#fffbea" />
      <stop offset="100%" stop-color="#fff3c4" />
    </linearGradient>
    
    <linearGradient id="dragonGradient" x1="0%" y1="0%" x2="100%" y2="100%">
      <stop offset="0%" stop-color="#ffd700" />
      <stop offset="100%" stop-color="#e6b800" />
    </linearGradient>
    
    <linearGradient id="chartGradient" x1="0%" y1="0%" x2="100%" y2="0%">
      <stop offset="0%" stop-color="#ffcc00" />
      <stop offset="100%" stop-color="#ffa200" />
    </linearGradient>
    
    <!-- 필터 -->
    <filter id="shadow" x="-20%" y="-20%" width="140%" height="140%">
      <feDropShadow dx="2" dy="2" stdDeviation="2" flood-color="#00000033" />
    </filter>
    
    <filter id="dragonGlow" x="-30%" y="-30%" width="160%" height="160%">
      <feGaussianBlur in="SourceAlpha" stdDeviation="4" result="blur" />
      <feFlood flood-color="#ffcc00" flood-opacity="0.5" result="color" />
      <feComposite in="color" in2="blur" operator="in" result="shadow" />
      <feComposite in="SourceGraphic" in2="shadow" operator="over" />
    </filter>
    
    <!-- 패턴 -->
    <pattern id="gridPattern" width="20" height="20" patternUnits="userSpaceOnUse">
      <rect width="20" height="20" fill="none" />
      <path d="M 20 0 L 0 0 0 20" fill="none" stroke="#f0e8c0" stroke-width="0.5" />
    </pattern>
  </defs>
  
  <!-- 배경 -->
  <rect width="600" height="400" fill="url(#bgGradient)" />
  <rect width="600" height="400" fill="url(#gridPattern)" opacity="0.6" />
  
  <!-- 하단 장식 -->
  <rect x="0" y="330" width="600" height="70" fill="#ffcc00" opacity="0.3" />
  
  <!-- 브랜드 가치 상승 그래픽 요소 -->
  <g transform="translate(300, 200)">
    <!-- 중앙 황룡 아이콘 배경 -->
    <circle cx="0" cy="0" r="75" fill="#ffefaa" opacity="0.7">
      <animate attributeName="r" values="75;80;75" dur="4s" repeatCount="indefinite" />
    </circle>
    
    <!-- 중앙 황룡 아이콘 -->
    <circle cx="0" cy="0" r="70" fill="url(#dragonGradient)" opacity="0.8" filter="url(#dragonGlow)">
      <animate attributeName="opacity" values="0.8;0.9;0.8" dur="3s" repeatCount="indefinite" />
    </circle>
    
    <!-- 황룡 실루엣 개선 -->
    <!--path d="M-20,-20 C-15,-25 -5,-30 5,-25 C15,-20 20,-10 20,-5 C20,0 15,5 10,10 C5,15 -5,15 -15,10 C-25,5 -25,0 -20,-20 Z 
             M20,-5 C25,-3 30,0 35,3 C40,6 42,12 40,15 C38,18 32,20 25,17 C18,14 15,5 20,-5 Z 
             M20,0 C24,5 26,15 24,25 C22,35 17,40 12,37 C7,34 5,25 7,15 C9,5 16,-5 20,0 Z" 
         fill="#ffcc00" stroke="#cc9900" stroke-width="2" filter="url(#dragonGlow)">
      <animate attributeName="d" values="
        M-20,-20 C-15,-25 -5,-30 5,-25 C15,-20 20,-10 20,-5 C20,0 15,5 10,10 C5,15 -5,15 -15,10 C-25,5 -25,0 -20,-20 Z M20,-5 C25,-3 30,0 35,3 C40,6 42,12 40,15 C38,18 32,20 25,17 C18,14 15,5 20,-5 Z M20,0 C24,5 26,15 24,25 C22,35 17,40 12,37 C7,34 5,25 7,15 C9,5 16,-5 20,0 Z;
        M-22,-22 C-17,-27 -7,-32 3,-27 C13,-22 18,-12 18,-7 C18,-2 13,3 8,8 C3,13 -7,13 -17,8 C-27,3 -27,-2 -22,-22 Z M18,-7 C23,-5 28,-2 33,1 C38,4 40,10 38,13 C36,16 30,18 23,15 C16,12 13,3 18,-7 Z M18,-2 C22,3 24,13 22,23 C20,33 15,38 10,35 C5,32 3,23 5,13 C7,3 14,-7 18,-2 Z;
        M-20,-20 C-15,-25 -5,-30 5,-25 C15,-20 20,-10 20,-5 C20,0 15,5 10,10 C5,15 -5,15 -15,10 C-25,5 -25,0 -20,-20 Z M20,-5 C25,-3 30,0 35,3 C40,6 42,12 40,15 C38,18 32,20 25,17 C18,14 15,5 20,-5 Z M20,0 C24,5 26,15 24,25 C22,35 17,40 12,37 C7,34 5,25 7,15 C9,5 16,-5 20,0 Z" 
        dur="5s" repeatCount="indefinite" />
    </path-->
    
    <!-- 황룡 눈 -->
    <!--circle cx="-5" cy="-15" r="2" fill="#cc9900" /-->
    
    <!-- 브랜드 가치 중앙 텍스트 -->
    <text x="0" y="0" font-family="Arial, sans-serif" font-size="16" text-anchor="middle" font-weight="bold" fill="#7d5700">장성군</text>
    <text x="0" y="25" font-family="Arial, sans-serif" font-size="13" text-anchor="middle" fill="#7d5700">브랜드 가치</text>
    
    <!-- 주변 브랜드 요소들 - 상단 좌측 -->
    <g transform="translate(-150, -100)">
      <rect x="-60" y="-30" width="120" height="50" rx="10" fill="#ffffff" stroke="#ddd" stroke-width="2" filter="url(#shadow)">
        <animate attributeName="y" values="-30;-33;-30" dur="3s" repeatCount="indefinite" begin="0.5s" />
      </rect>
      <text x="0" y="-10" font-family="Arial, sans-serif" font-size="14" text-anchor="middle" font-weight="bold" fill="#333">문화관광 도시</text>
      <text x="0" y="10" font-family="Arial, sans-serif" font-size="10" text-anchor="middle" fill="#666">이미지 확립</text>
      
      <!-- 연결선 -->
      <line x1="60" y1="0" x2="100" y2="50" stroke="url(#chartGradient)" stroke-width="2" stroke-dasharray="5,3">
        <animate attributeName="stroke-dashoffset" values="8;0;8" dur="2s" repeatCount="indefinite" />
      </line>
    </g>
    
    <!-- 주변 브랜드 요소들 - 상단 우측 -->
    <g transform="translate(150, -100)">
      <rect x="-60" y="-30" width="120" height="50" rx="10" fill="#ffffff" stroke="#ddd" stroke-width="2" filter="url(#shadow)">
        <animate attributeName="y" values="-30;-33;-30" dur="3s" repeatCount="indefinite" begin="1s" />
      </rect>
      <text x="0" y="-10" font-family="Arial, sans-serif" font-size="14" text-anchor="middle" font-weight="bold" fill="#333">콘텐츠 다양화</text>
      <text x="0" y="10" font-family="Arial, sans-serif" font-size="10" text-anchor="middle" fill="#666">역사·문화·체험</text>
      
      <!-- 연결선 -->
      <line x1="-60" y1="0" x2="-100" y2="50" stroke="url(#chartGradient)" stroke-width="2" stroke-dasharray="5,3">
        <animate attributeName="stroke-dashoffset" values="8;0;8" dur="2s" repeatCount="indefinite" />
      </line>
    </g>
    
    <!-- 주변 브랜드 요소들 - 하단 좌측 -->
    <g transform="translate(-150, 100)">
      <rect x="-60" y="-30" width="120" height="50" rx="10" fill="#ffffff" stroke="#ddd" stroke-width="2" filter="url(#shadow)">
        <animate attributeName="y" values="-30;-33;-30" dur="3s" repeatCount="indefinite" begin="1.5s" />
      </rect>
      <text x="0" y="-5" font-family="Arial, sans-serif" font-size="14" text-anchor="middle" font-weight="bold" fill="#333">재방문율 증가</text>
      <text x="0" y="15" font-family="Arial, sans-serif" font-size="10" text-anchor="middle" fill="#666">계절별 프로그램</text>
      
      <!-- 연결선 -->
      <line x1="60" y1="0" x2="100" y2="-50" stroke="url(#chartGradient)" stroke-width="2" stroke-dasharray="5,3">
        <animate attributeName="stroke-dashoffset" values="8;0;8" dur="2s" repeatCount="indefinite" />
      </line>
    </g>
    
    <!-- 주변 브랜드 요소들 - 하단 우측 -->
    <g transform="translate(150, 100)">
      <rect x="-60" y="-30" width="120" height="50" rx="10" fill="#ffffff" stroke="#ddd" stroke-width="2" filter="url(#shadow)">
        <animate attributeName="y" values="-30;-33;-30" dur="3s" repeatCount="indefinite" begin="2s" />
      </rect>
      <text x="0" y="-5" font-family="Arial, sans-serif" font-size="14" text-anchor="middle" font-weight="bold" fill="#333">지역 이미지 강화</text>
      <text x="0" y="15" font-family="Arial, sans-serif" font-size="10" text-anchor="middle" fill="#666">차별화된 브랜딩</text>
      
      <!-- 연결선 -->
      <line x1="-60" y1="0" x2="-100" y2="-50" stroke="url(#chartGradient)" stroke-width="2" stroke-dasharray="5,3">
        <animate attributeName="stroke-dashoffset" values="8;0;8" dur="2s" repeatCount="indefinite" />
      </line>
    </g>
  </g>
  
  <!-- 브랜드 가치 상승 차트 -->
  <g transform="translate(50, 100)">
    <!-- 차트 기준선 -->
    <line x1="0" y1="100" x2="500" y2="100" stroke="#cccccc" stroke-width="1" stroke-dasharray="3,2" />
    
    <!-- 차트 영역 -->
    <path d="M0,100 L100,40 L200,20 L300,0 L400,20 L500,40 L500,100 Z" fill="url(#chartGradient)" opacity="0.2" />
    
    <!-- 차트 선 -->
    <path d="M0,100 L100,40 L200,20 L300,0 L400,20 L500,40" fill="none" stroke="url(#chartGradient)" stroke-width="4">
      <animate attributeName="stroke-dasharray" values="0,1000;550,1000;550,0" dur="3s" repeatCount="1" />
    </path>
    
    <!-- 차트 화살표 -->
    <polygon points="495,35 510,40 495,45" fill="#ffcc00">
      <animate attributeName="opacity" values="0;1" dur="3s" repeatCount="1" />
    </polygon>
    
    <!-- 데이터 포인트 -->
    <g>
      <circle cx="0" cy="100" r="8" fill="#ffcc00" filter="url(#shadow)" />
      <text x="0" y="120" font-family="Arial, sans-serif" font-size="12" text-anchor="middle" fill="#333">현재</text>
      <text x="0" y="85" font-family="Arial, sans-serif" font-size="10" text-anchor="middle" fill="#333">100%</text>
    </g>
    
    <g>
      <circle cx="100" cy="40" r="8" fill="#ffcc00" filter="url(#shadow)" />
      <text x="100" y="60" font-family="Arial, sans-serif" font-size="12" text-anchor="middle" fill="#333">1년차</text>
      <text x="100" y="28" font-family="Arial, sans-serif" font-size="10" text-anchor="middle" fill="#333">110%</text>
    </g>
    
    <g>
      <circle cx="200" cy="20" r="8" fill="#ffcc00" filter="url(#shadow)" />
      <text x="200" y="40" font-family="Arial, sans-serif" font-size="12" text-anchor="middle" fill="#333">2년차</text>
      <text x="200" y="5" font-family="Arial, sans-serif" font-size="10" text-anchor="middle" fill="#333">120%</text>
    </g>
    
    <g>
      <circle cx="300" cy="0" r="8" fill="#ffcc00" filter="url(#shadow)" />
      <text x="300" y="20" font-family="Arial, sans-serif" font-size="12" text-anchor="middle" fill="#333">3년차</text>
      <text x="300" y="-15" font-family="Arial, sans-serif" font-size="10" text-anchor="middle" fill="#333">130%</text>
    </g>
    
    <g>
      <circle cx="400" cy="20" r="8" fill="#ffcc00" filter="url(#shadow)" />
      <text x="400" y="40" font-family="Arial, sans-serif" font-size="12" text-anchor="middle" fill="#333">4년차</text>
      <text x="400" y="55" font-family="Arial, sans-serif" font-size="10" text-anchor="middle" fill="#333">140%</text>
    </g>
    
    <g>
      <circle cx="500" cy="40" r="8" fill="#ffcc00" filter="url(#shadow)" />
      <text x="500" y="60" font-family="Arial, sans-serif" font-size="12" text-anchor="middle" fill="#333">5년차</text>
      <text x="500" y="25" font-family="Arial, sans-serif" font-size="10" text-anchor="middle" fill="#333">150%</text>
    </g>
  </g>
  
  <!-- 제목 및 설명 -->
  <g>
    <!-- 배경 장식 -->
    <rect x="150" y="20" width="300" height="40" rx="10" fill="#ffffff" opacity="0.7" filter="url(#shadow)" />
    
    <!-- 제목 -->
    <text x="300" y="50" font-family="Arial, sans-serif" font-size="24" text-anchor="middle" font-weight="bold" fill="#333">장성 브랜드 가치 상승 효과</text>
    
    <!-- 부제목 -->
    <!--text x="300" y="75" font-family="Arial, sans-serif" font-size="16" text-anchor="middle" fill="#666">"황룡의 숨결을 따라" 스토리로드를 통한 지역 브랜드 강화</text-->
  </g>
  
  <!-- 하단 정보 패널 -->
  <g>
    <rect x="100" y="340" width="400" height="50" rx="10" fill="#fff" stroke="url(#chartGradient)" stroke-width="2" filter="url(#shadow)" />
    
    <text x="300" y="360" font-family="Arial, sans-serif" font-size="14" text-anchor="middle" font-weight="bold" fill="#333">5년 내 지역 브랜드 가치 50% 이상 향상 예상</text>
    <text x="300" y="375" font-family="Arial, sans-serif" font-size="11" text-anchor="middle" fill="#666">관광 수입 증가, 지역 경제 활성화, 주민 자긍심 고취 효과</text>
  </g>
  
  <!-- 범례 -->
  <!--g transform="translate(50, 340)">
    <circle cx="0" cy="0" r="5" fill="#ffcc00" />
    <text x="-10" y="4" font-family="Arial, sans-serif" font-size="10" text-anchor="start" fill="#333">브랜드 가치 지수</text>
  </g-->
  
  <!-- 황룡 장식 요소 -->
  <path d="M550,340 C560,330 570,325 580,330 C590,335 590,345 580,350 C570,355 560,350 550,340 Z" fill="#ffcc00" opacity="0.6">
    <animate attributeName="d" values="
      M550,340 C560,330 570,325 580,330 C590,335 590,345 580,350 C570,355 560,350 550,340 Z;
      M550,338 C560,328 570,323 580,328 C590,333 590,343 580,348 C570,353 560,348 550,338 Z;
      M550,340 C560,330 570,325 580,330 C590,335 590,345 580,350 C570,355 560,350 550,340 Z" 
      dur="3s" repeatCount="indefinite" />
  </path>
</svg>