<?xml version="1.0" encoding="UTF-8" standalone="no"?>
<svg width="600" height="400" xmlns="http://www.w3.org/2000/svg">
  <!-- 정의 -->
  <defs>
    <!-- 그라데이션 -->
    <linearGradient id="skyGradient" x1="0%" y1="0%" x2="0%" y2="100%">
      <stop offset="0%" stop-color="#e6f5ff" />
      <stop offset="100%" stop-color="#f5fff5" />
    </linearGradient>
    
    <linearGradient id="groundGradient" x1="0%" y1="0%" x2="0%" y2="100%">
      <stop offset="0%" stop-color="#98d98e" />
      <stop offset="100%" stop-color="#75b875" />
    </linearGradient>
    
    <linearGradient id="mountainGradient" x1="0%" y1="0%" x2="0%" y2="100%">
      <stop offset="0%" stop-color="#8bc34a" />
      <stop offset="100%" stop-color="#689f38" />
    </linearGradient>
    
    <linearGradient id="roofGradient" x1="0%" y1="0%" x2="0%" y2="100%">
      <stop offset="0%" stop-color="#ff8a65" />
      <stop offset="100%" stop-color="#e64a19" />
    </linearGradient>
    
    <!-- 필터 -->
    <filter id="shadow" x="-20%" y="-20%" width="140%" height="140%">
      <feDropShadow dx="2" dy="2" stdDeviation="2" flood-color="#00000033" />
    </filter>
    
    <filter id="glow" x="-30%" y="-30%" width="160%" height="160%">
      <feGaussianBlur in="SourceAlpha" stdDeviation="3" result="blur" />
      <feFlood flood-color="#28a745" flood-opacity="0.5" result="color" />
      <feComposite in="color" in2="blur" operator="in" result="shadow" />
      <feComposite in="SourceGraphic" in2="shadow" operator="over" />
    </filter>
    
    <!-- 패턴 -->
    <pattern id="grassPattern" width="10" height="10" patternUnits="userSpaceOnUse">
      <path d="M0,10 L2,7 L0,5 L2,2 L5,0 L8,2 L10,5 L8,7 L10,10" stroke="#75a478" stroke-width="0.5" fill="none" opacity="0.3" />
    </pattern>
    
    <!-- 구름 패턴 -->
    <path id="cloud" d="M-15,0 Q-10,-10 0,-10 Q10,-10 15,0 Q20,10 10,10 Q5,15 -5,15 Q-15,10 -15,0" />
  </defs>
  
  <!-- 배경 -->
  <rect width="600" height="400" fill="url(#skyGradient)" />
  
  <!-- 구름 -->
  <g opacity="0.7">
    <use href="#cloud" x="100" y="80" fill="#ffffff">
      <animate attributeName="x" values="100;110;100" dur="20s" repeatCount="indefinite" />
    </use>
    <use href="#cloud" x="300" y="60" fill="#ffffff">
      <animate attributeName="x" values="300;310;300" dur="25s" repeatCount="indefinite" />
    </use>
    <use href="#cloud" x="500" y="90" fill="#ffffff">
      <animate attributeName="x" values="500;510;500" dur="22s" repeatCount="indefinite" />
    </use>
  </g>
  
  <!-- 산 모양 배경 -->
  <path d="M0,250 L100,190 L200,240 L270,160 L350,220 L450,150 L550,220 L600,190 L600,250 Z" fill="url(#mountainGradient)" opacity="0.3">
    <animate attributeName="d" values="
      M0,250 L100,190 L200,240 L270,160 L350,220 L450,150 L550,220 L600,190 L600,250 Z;
      M0,250 L100,185 L200,235 L270,155 L350,215 L450,145 L550,215 L600,185 L600,250 Z;
      M0,250 L100,190 L200,240 L270,160 L350,220 L450,150 L550,220 L600,190 L600,250 Z"
      dur="20s" repeatCount="indefinite" />
  </path>
  
  <!-- 마을 배경 -->
  <path d="M0,250 C50,240 100,245 150,250 C200,255 250,245 300,250 C350,255 400,245 450,250 C500,255 550,245 600,250 L600,400 L0,400 Z" fill="url(#groundGradient)" opacity="0.4" />
  <rect x="0" y="250" width="600" height="150" fill="url(#grassPattern)" />
  
  <!-- 중앙 마을 공동체 그림 -->
  <g transform="translate(300, 200)">
    <!-- 마을회관 -->
    <g>
      <rect x="-100" y="-80" width="80" height="60" fill="#ffffff" stroke="#333" stroke-width="2" filter="url(#shadow)" />
      <path d="M-110,-80 L-60,-110 L-10,-80" fill="url(#roofGradient)" stroke="#333" stroke-width="2" />
      <rect x="-80" y="-60" width="20" height="40" fill="#a1887f" />
      <rect x="-50" y="-50" width="20" height="20" fill="#90caf9" />
      
      <!-- 회관 창문에서 나오는 빛 -->
      <rect x="-50" y="-50" width="20" height="20" fill="#ffeb3b" opacity="0.3">
        <animate attributeName="opacity" values="0.3;0.5;0.3" dur="3s" repeatCount="indefinite" />
      </rect>
      
      <!-- 깃발 -->
      <line x1="-95" y1="-110" x2="-95" y2="-130" stroke="#555" stroke-width="1" />
      <path d="M-95,-130 L-75,-125 L-95,-120" fill="#28a745">
        <animate attributeName="d" values="
          M-95,-130 L-75,-125 L-95,-120;
          M-95,-130 L-80,-127 L-95,-120;
          M-95,-130 L-75,-125 L-95,-120" 
          dur="2s" repeatCount="indefinite" />
      </path>
      
      <!-- 연기 -->
      <path d="M-30,-100 C-28,-105 -26,-106 -24,-105 C-22,-104 -20,-108 -18,-110" stroke="#aaa" stroke-width="1" fill="none" opacity="0.5">
        <animate attributeName="d" values="
          M-30,-100 C-28,-105 -26,-106 -24,-105 C-22,-104 -20,-108 -18,-110;
          M-30,-100 C-28,-108 -26,-110 -24,-108 C-22,-106 -20,-110 -18,-115;
          M-30,-100 C-28,-105 -26,-106 -24,-105 C-22,-104 -20,-108 -18,-110" 
          dur="4s" repeatCount="indefinite" />
        <animate attributeName="opacity" values="0.5;0.2;0.5" dur="4s" repeatCount="indefinite" />
      </path>
      
      <text x="-60" y="-5" font-family="Arial, sans-serif" font-size="10" text-anchor="middle" fill="#333" font-weight="bold">마을회관</text>
    </g>
    
    <!-- 인물1: 스토리텔러 -->
    <g transform="translate(-140, 0)">
      <circle cx="0" cy="-15" r="15" fill="#ffeb3b" filter="url(#shadow)" />
      <path d="M-5,-18 C-5,-20 5,-20 5,-18" stroke="#333" stroke-width="1" fill="none" />
      <circle cx="-5" cy="-13" r="2" fill="#333" />
      <circle cx="5" cy="-13" r="2" fill="#333" />
      <path d="M0,-5 L0,20 M-15,5 L0,0 L15,5" stroke="#333" stroke-width="3" fill="none" />
      
      <!-- 스토리북 아이콘 -->
      <rect x="8" y="-5" width="10" height="15" fill="#f5f5f5" stroke="#333" stroke-width="1" />
      <path d="M8,-5 L18,-5 L18,10 L8,10" stroke="#333" stroke-width="0.5" fill="none" />
      
      <text x="0" y="35" font-family="Arial, sans-serif" font-size="10" text-anchor="middle" fill="#333" font-weight="bold">스토리텔러</text>
      
      <!-- 말풍선 -->
    <g transform="translate(-30, 0)">
      <g opacity="0.8">
        <path d="M-20,-40 Q-40,-40 -40,-25 Q-40,-10 -20,-10 L-15,-10 L-12,-5 L-10,-10 L-10,-10 Q10,-10 10,-25 Q10,-40 -20,-40 Z" fill="#ffffff" stroke="#333" stroke-width="1">
          <animate attributeName="opacity" values="0.8;1;0.8" dur="5s" repeatCount="indefinite" />
        </path>
        <text x="-15" y="-22" font-family="Arial, sans-serif" font-size="8" text-anchor="middle" fill="#333">장성의 황룡 이야기를...</text>
      </g></g>
    </g>
    
    <!-- 인물2: 어르신 -->
    <g transform="translate(-70, 40)">
      <circle cx="0" cy="-15" r="15" fill="#e6e6e6" filter="url(#shadow)" />
      <path d="M-8,-18 L-5,-13 L-2,-18 M2,-18 L5,-13 L8,-18" stroke="#333" stroke-width="1" fill="none" />
      <circle cx="-5" cy="-13" r="2" fill="#333" />
      <circle cx="5" cy="-13" r="2" fill="#333" />
      <path d="M-1,-8 C-1,-6 1,-6 1,-8" stroke="#333" stroke-width="1" fill="none" />
      <path d="M0,-5 L0,15 M-15,5 L0,0 L15,5" stroke="#333" stroke-width="2" fill="none" />
      <path d="M0,15 L-5,30" stroke="#333" stroke-width="2" fill="none" />
      <path d="M5,8 L15,10" stroke="#333" stroke-width="2" fill="none" />
      
      <!-- 지팡이 -->
      <path d="M15,10 L20,30" stroke="#a1887f" stroke-width="2" />
      
      <text x="0" y="45" font-family="Arial, sans-serif" font-size="10" text-anchor="middle" fill="#333" font-weight="bold">어르신</text>
    </g>
    
    <!-- 인물3: 청년 -->
    <g transform="translate(0, 0)">
      <circle cx="0" cy="-15" r="15" fill="#4fc3f7" filter="url(#shadow)" />
      <path d="M-5,-18 C-5,-20 5,-20 5,-18" stroke="#333" stroke-width="1" fill="none" />
      <circle cx="-5" cy="-13" r="2" fill="#333" />
      <circle cx="5" cy="-13" r="2" fill="#333" />
      <path d="M0,-5 L0,20 M-15,5 L0,0 L15,5" stroke="#333" stroke-width="3" fill="none" />
      
      <!-- 스마트폰 -->
      <rect x="-7" y="10" width="14" height="20" rx="2" fill="#333" />
      <rect x="-5" y="12" width="10" height="16" fill="#90caf9" />
      
      <text x="0" y="45" font-family="Arial, sans-serif" font-size="10" text-anchor="middle" fill="#333" font-weight="bold">청년</text>
      
      <!-- 말풍선 -->

    <g transform="translate(20, -10)">
      <g opacity="0.8">
        <path d="M30,-25 Q45,-25 45,-15 Q45,-5 30,-5 L25,-5 L22,0 L20,-5 L20,-5 Q5,-5 5,-15 Q5,-25 30,-25 Z" fill="#ffffff" stroke="#333" stroke-width="1">
          <animate attributeName="opacity" values="0.8;1;0.8" dur="4s" repeatCount="indefinite" />
        </path>
        <text x="25" y="-13" font-family="Arial, sans-serif" font-size="7" text-anchor="middle" fill="#333">SNS에 공유해요!</text>
      </g></g>
    </g>
    
    <!-- 인물4: 어린이 -->
    <g transform="translate(70, 10)">
      <circle cx="0" cy="-15" r="12" fill="#ffab91" filter="url(#shadow)" />
      <path d="M-3,-16 C-3,-18 3,-18 3,-16" stroke="#333" stroke-width="1" fill="none" />
      <circle cx="-4" cy="-13" r="1.5" fill="#333" />
      <circle cx="4" cy="-13" r="1.5" fill="#333" />
      <path d="M0,-5 L0,15 M-10,5 L0,0 L10,5" stroke="#333" stroke-width="2" fill="none" />
      
      <!-- 점프 애니메이션 -->
      <animateTransform attributeName="transform" type="translate" values="0,0; 0,-5; 0,0" dur="1s" repeatCount="indefinite" />
      
      <text x="0" y="30" font-family="Arial, sans-serif" font-size="10" text-anchor="middle" fill="#333" font-weight="bold">어린이</text>
    </g>
    
    <!-- 인물5: 체험운영자 -->
    <g transform="translate(140, 0)">
      <circle cx="0" cy="-15" r="15" fill="#aed581" filter="url(#shadow)" />
      <path d="M-5,-18 C-5,-20 5,-20 5,-18" stroke="#333" stroke-width="1" fill="none" />
      <circle cx="-5" cy="-13" r="2" fill="#333" />
      <circle cx="5" cy="-13" r="2" fill="#333" />
      <path d="M0,-5 L0,20 M-15,5 L0,0 L15,5" stroke="#333" stroke-width="3" fill="none" />
      
      <!-- 체험활동 도구 -->
      <rect x="-10" y="10" width="20" height="15" fill="#f5f5f5" stroke="#333" stroke-width="1" />
      <line x1="-8" y1="15" x2="8" y2="15" stroke="#333" stroke-width="1" />
      <line x1="-8" y1="20" x2="8" y2="20" stroke="#333" stroke-width="1" />
      
      <text x="0" y="45" font-family="Arial, sans-serif" font-size="10" text-anchor="middle" fill="#333" font-weight="bold">체험운영자</text>
    </g>
    
    <!-- 연결선 -->
    <g>
      <line x1="-140" y1="0" x2="-70" y2="20" stroke="#28a745" stroke-width="1.5" stroke-dasharray="4,2">
        <animate attributeName="stroke-dashoffset" values="6;0;6" dur="3s" repeatCount="indefinite" />
      </line>
      <line x1="-70" y1="20" x2="0" y2="0" stroke="#28a745" stroke-width="1.5" stroke-dasharray="4,2">
        <animate attributeName="stroke-dashoffset" values="6;0;6" dur="3s" repeatCount="indefinite" />
      </line>
      <line x1="0" y1="0" x2="70" y2="10" stroke="#28a745" stroke-width="1.5" stroke-dasharray="4,2">
        <animate attributeName="stroke-dashoffset" values="6;0;6" dur="3s" repeatCount="indefinite" />
      </line>
      <line x1="0" y1="0" x2="140" y2="0" stroke="#28a745" stroke-width="1.5" stroke-dasharray="4,2">
        <animate attributeName="stroke-dashoffset" values="6;0;6" dur="3s" repeatCount="indefinite" />
      </line>
      <line x1="-140" y1="0" x2="-60" y2="-20" stroke="#28a745" stroke-width="1.5" stroke-dasharray="4,2">
        <animate attributeName="stroke-dashoffset" values="6;0;6" dur="3s" repeatCount="indefinite" />
      </line>
      <line x1="140" y1="0" x2="-60" y2="-20" stroke="#28a745" stroke-width="1.5" stroke-dasharray="4,2">
        <animate attributeName="stroke-dashoffset" values="6;0;6" dur="3s" repeatCount="indefinite" />
      </line>
    </g>
    
    <!-- 체험 프로그램 -->
    <g transform="translate(55, -80)">
      <rect x="-60" y="-20" width="120" height="40" rx="10" fill="#ffffff" stroke="#28a745" stroke-width="2" filter="url(#glow)">
        <animate attributeName="stroke-width" values="2;3;2" dur="2s" repeatCount="indefinite" />
      </rect>
      <text x="0" y="5" font-family="Arial, sans-serif" font-size="14" text-anchor="middle" fill="#28a745" font-weight="bold">체험 프로그램</text>
      <!--line x1="0" y1="20" x2="0" y2="40" stroke="#28a745" stroke-width="1.5" stroke-dasharray="4,2">
        <animate attributeName="stroke-dashoffset" values="6;0;6" dur="3s" repeatCount="indefinite" />
      </line-->
    </g>
    
    <!-- 스토리 발굴 프로그램 -->
    <g transform="translate(-180, -65)">
      <rect x="-60" y="-20" width="120" height="40" rx="10" fill="#ffffff" stroke="#28a745" stroke-width="2" filter="url(#shadow)">
        <animate attributeName="y" values="-20;-22;-20" dur="3s" repeatCount="indefinite" />
      </rect>
      <text x="0" y="5" font-family="Arial, sans-serif" font-size="12" text-anchor="middle" fill="#28a745" font-weight="bold">스토리 발굴</text>
      <!--line x1="60" y1="0" x2="90" y2="30" stroke="#28a745" stroke-width="1.5" stroke-dasharray="4,2">
        <animate attributeName="stroke-dashoffset" values="6;0;6" dur="3s" repeatCount="indefinite" />
      </line-->
      
      <!-- 아이콘 -->
      <!--path d="M-25,3 C-25,0 -15,-5 -5,-5 C5,-5 15,0 15,3" stroke="#28a745" stroke-width="1" fill="none" />
      <path d="M-25,5 L15,5" stroke="#28a745" stroke-width="1" />
      <path d="M-25,7 L15,7" stroke="#28a745" stroke-width="1" />
      <path d="M-25,9 L5,9" stroke="#28a745" stroke-width="1" /-->
    </g>
    
    <!-- 마을 특화 상품 -->
    <g transform="translate(180, -60)">
      <rect x="-60" y="-20" width="120" height="40" rx="10" fill="#ffffff" stroke="#28a745" stroke-width="2" filter="url(#shadow)">
        <animate attributeName="y" values="-20;-22;-20" dur="3s" repeatCount="indefinite" />
      </rect>
      <text x="0" y="5" font-family="Arial, sans-serif" font-size="12" text-anchor="middle" fill="#28a745" font-weight="bold">마을 특화 상품</text>
      <!--line x1="-60" y1="0" x2="-90" y2="30" stroke="#28a745" stroke-width="1.5" stroke-dasharray="4,2">
        <animate attributeName="stroke-dashoffset" values="6;0;6" dur="3s" repeatCount="indefinite" />
      </line-->
      
      <!-- 아이콘 -->
      <!--rect x="15" y="-8" width="15" height="15" rx="2" fill="none" stroke="#28a745" stroke-width="1" />
      <path d="M15,-3 L30,-3" stroke="#28a745" stroke-width="1" />
      <path d="M22.5,-8 L22.5,7" stroke="#28a745" stroke-width="1" /-->
    </g>
  </g>
  
  <!-- 주변 장식 요소 -->
  <g>
    <!-- 나무 1 -->
    <g transform="translate(80, 240)">
      <rect x="-5" y="0" width="10" height="20" fill="#8d6e63" />
      <ellipse cx="0" cy="-10" rx="15" ry="20" fill="#66bb6a" />
      
      <!-- 나무 흔들림 효과 -->
      <animateTransform attributeName="transform" type="rotate" values="-2,80,240; 2,80,240; -2,80,240" dur="4s" repeatCount="indefinite" additive="sum" />
    </g>
    
    <!-- 나무 2 -->
    <g transform="translate(520, 230)">
      <rect x="-5" y="0" width="10" height="25" fill="#8d6e63" />
      <ellipse cx="0" cy="-15" rx="20" ry="25" fill="#66bb6a" />
      
      <!-- 나무 흔들림 효과 -->
      <animateTransform attributeName="transform" type="rotate" values="2,520,230; -2,520,230; 2,520,230" dur="5s" repeatCount="indefinite" additive="sum" />
    </g>
    
    <!-- 꽃 -->
    <g transform="translate(150, 300)">
      <circle cx="0" cy="0" r="5" fill="#ec407a" />
      <circle cx="0" cy="-8" r="3" fill="#ec407a" />
      <circle cx="8" cy="0" r="3" fill="#ec407a" />
      <circle cx="0" cy="8" r="3" fill="#ec407a" />
      <circle cx="-8" cy="0" r="3" fill="#ec407a" />
      <circle cx="0" cy="0" r="2" fill="#ffeb3b" />
      <line x1="0" y1="10" x2="0" y2="20" stroke="#66bb6a" stroke-width="2" />
    </g>
    
    <g transform="translate(450, 280)">
      <circle cx="0" cy="0" r="5" fill="#ec407a" />
      <circle cx="0" cy="-8" r="3" fill="#ec407a" />
      <circle cx="8" cy="0" r="3" fill="#ec407a" />
      <circle cx="0" cy="8" r="3" fill="#ec407a" />
      <circle cx="-8" cy="0" r="3" fill="#ec407a" />
      <circle cx="0" cy="0" r="2" fill="#ffeb3b" />
      <line x1="0" y1="10" x2="0" y2="20" stroke="#66bb6a" stroke-width="2" />
    </g>
  </g>
  
  <!-- 제목 배경 -->
  <rect x="150" y="20" width="300" height="70" rx="10" fill="#ffffff" opacity="0.8" filter="url(#shadow)" />
  
  <!-- 제목 -->
  <text x="300" y="50" font-family="Arial, sans-serif" font-size="24" text-anchor="middle" font-weight="bold" fill="#28a745">지역 공동체 활성화</text>
  
  <!-- 부제목 -->
  <text x="300" y="75" font-family="Arial, sans-serif" font-size="16" text-anchor="middle" fill="#555">주민 참여 증가와 세대 간 소통 증진</text>
  
  <!-- 하단 정보 -->
  <g>
    <rect x="50" y="320" width="500" height="60" rx="10" fill="#ffffff" stroke="#28a745" stroke-width="2" filter="url(#shadow)" />
    
    <text x="300" y="345" font-family="Arial, sans-serif" font-size="14" text-anchor="middle" fill="#333" font-weight="bold">지역 문화 보존 및 정체성 강화</text>
    <text x="300" y="365" font-family="Arial, sans-serif" font-size="12" text-anchor="middle" fill="#666">스토리텔러 양성, 주민 참여 프로그램 운영으로 지역 공동체 활성화</text>
    
    <!-- 아이콘 -->
    <g transform="translate(70, 345)">
      <circle cx="0" cy="0" r="15" fill="#e8f5e9" stroke="#28a745" stroke-width="1" />
      <path d="M-8,-5 C-8,5 8,5 8,-5" stroke="#28a745" stroke-width="1.5" fill="none" />
      <circle cx="-4" cy="-2" r="2" fill="#28a745" />
      <circle cx="4" cy="-2" r="2" fill="#28a745" />
    </g>
    
    <g transform="translate(530, 345)">
      <circle cx="0" cy="0" r="15" fill="#e8f5e9" stroke="#28a745" stroke-width="1" />
      <path d="M-8,-5 C-8,5 8,5 8,-5" stroke="#28a745" stroke-width="1.5" fill="none" />
      <circle cx="-4" cy="-2" r="2" fill="#28a745" />
      <circle cx="4" cy="-2" r="2" fill="#28a745" />
    </g>
  </g>
</svg>