<?xml version="1.0" encoding="UTF-8" standalone="no"?>
<svg width="600" height="400" xmlns="http://www.w3.org/2000/svg">
  <rect width="600" height="400" fill="#f5fff5" />
  
  <!-- 마을 배경 -->
  <path d="M0,250 C50,240 100,245 150,250 C200,255 250,245 300,250 C350,255 400,245 450,250 C500,255 550,245 600,250 L600,400 L0,400 Z" fill="#98d98e" opacity="0.3" />
  
  <!-- 산 모양 배경 -->
  <path d="M0,250 L100,190 L200,240 L270,160 L350,220 L450,150 L550,220 L600,190 L600,250 Z" fill="#75a478" opacity="0.2" />
  
  <!-- 중앙 마을 공동체 그림 -->
  <g transform="translate(300, 200)">
    <!-- 마을회관 -->
    <rect x="-100" y="-80" width="80" height="60" fill="#ffffff" stroke="#333" stroke-width="2" />
    <path d="M-110,-80 L-60,-110 L-10,-80" fill="#e57373" stroke="#333" stroke-width="2" />
    <rect x="-80" y="-60" width="20" height="40" fill="#a1887f" />
    <rect x="-50" y="-50" width="20" height="20" fill="#90caf9" />
    <text x="-60" y="-5" font-family="Arial, sans-serif" font-size="10" text-anchor="middle" fill="#333">마을회관</text>
    
    <!-- 인물1: 스토리텔러 -->
    <g transform="translate(-140, 0)">
      <circle cx="0" cy="-15" r="15" fill="#ffeb3b" />
      <path d="M-5,-18 C-5,-20 5,-20 5,-18" stroke="#333" stroke-width="1" fill="none" />
      <circle cx="-5" cy="-13" r="2" fill="#333" />
      <circle cx="5" cy="-13" r="2" fill="#333" />
      <path d="M0,-5 L0,20 M-15,5 L0,0 L15,5" stroke="#333" stroke-width="3" fill="none" />
      <text x="0" y="35" font-family="Arial, sans-serif" font-size="10" text-anchor="middle" fill="#333">스토리텔러</text>
    </g>
    
    <!-- 인물2: 어르신 -->
    <g transform="translate(-70, 20)">
      <circle cx="0" cy="-15" r="15" fill="#e6e6e6" />
      <path d="M-8,-18 L-5,-13 L-2,-18 M2,-18 L5,-13 L8,-18" stroke="#333" stroke-width="1" fill="none" />
      <circle cx="-5" cy="-13" r="2" fill="#333" />
      <circle cx="5" cy="-13" r="2" fill="#333" />
      <path d="M-1,-8 C-1,-6 1,-6 1,-8" stroke="#333" stroke-width="1" fill="none" />
      <path d="M0,-5 L0,15 M-15,5 L0,0 L15,5" stroke="#333" stroke-width="2" fill="none" />
      <path d="M0,15 L-5,30" stroke="#333" stroke-width="2" fill="none" />
      <path d="M5,8 L15,10" stroke="#333" stroke-width="2" fill="none" />
      <text x="0" y="45" font-family="Arial, sans-serif" font-size="10" text-anchor="middle" fill="#333">어르신</text>
    </g>
    
    <!-- 인물3: 청년 -->
    <g transform="translate(0, 0)">
      <circle cx="0" cy="-15" r="15" fill="#4fc3f7" />
      <path d="M-5,-18 C-5,-20 5,-20 5,-18" stroke="#333" stroke-width="1" fill="none" />
      <circle cx="-5" cy="-13" r="2" fill="#333" />
      <circle cx="5" cy="-13" r="2" fill="#333" />
      <path d="M0,-5 L0,20 M-15,5 L0,0 L15,5" stroke="#333" stroke-width="3" fill="none" />
      <text x="0" y="35" font-family="Arial, sans-serif" font-size="10" text-anchor="middle" fill="#333">청년</text>
    </g>
    
    <!-- 인물4: 어린이 -->
    <g transform="translate(70, 10)">
      <circle cx="0" cy="-15" r="12" fill="#ffab91" />
      <path d="M-5,-18 C-5,-20 5,-20 5,-18" stroke="#333" stroke-width="1" fill="none" />
      <circle cx="-4" cy="-13" r="1.5" fill="#333" />
      <circle cx="4" cy="-13" r="1.5" fill="#333" />
      <path d="M0,-5 L0,15 M-10,5 L0,0 L10,5" stroke="#333" stroke-width="2" fill="none" />
      <text x="0" y="30" font-family="Arial, sans-serif" font-size="10" text-anchor="middle" fill="#333">어린이</text>
    </g>
    
    <!-- 인물5: 체험운영자 -->
    <g transform="translate(140, 0)">
      <circle cx="0" cy="-15" r="15" fill="#aed581" />
      <path d="M-5,-18 C-5,-20 5,-20 5,-18" stroke="#333" stroke-width="1" fill="none" />
      <circle cx="-5" cy="-13" r="2" fill="#333" />
      <circle cx="5" cy="-13" r="2" fill="#333" />
      <path d="M0,-5 L0,20 M-15,5 L0,0 L15,5" stroke="#333" stroke-width="3" fill="none" />
      <text x="0" y="35" font-family="Arial, sans-serif" font-size="10" text-anchor="middle" fill="#333">체험운영자</text>
    </g>
    
    <!-- 연결선 -->
    <line x1="-140" y1="0" x2="-70" y2="20" stroke="#28a745" stroke-width="1.5" stroke-dasharray="4,2" />
    <line x1="-70" y1="20" x2="0" y2="0" stroke="#28a745" stroke-width="1.5" stroke-dasharray="4,2" />
    <line x1="0" y1="0" x2="70" y2="10" stroke="#28a745" stroke-width="1.5" stroke-dasharray="4,2" />
    <line x1="0" y1="0" x2="140" y2="0" stroke="#28a745" stroke-width="1.5" stroke-dasharray="4,2" />
    <line x1="-140" y1="0" x2="-60" y2="-20" stroke="#28a745" stroke-width="1.5" stroke-dasharray="4,2" />
    <line x1="140" y1="0" x2="-60" y2="-20" stroke="#28a745" stroke-width="1.5" stroke-dasharray="4,2" />
    
    <!-- 체험 프로그램 -->
    <g transform="translate(0, -100)">
      <rect x="-60" y="-20" width="120" height="40" rx="10" fill="#ffffff" stroke="#28a745" stroke-width="2" />
      <text x="0" y="5" font-family="Arial, sans-serif" font-size="14" text-anchor="middle" fill="#28a745" font-weight="bold">체험 프로그램</text>
      <line x1="0" y1="20" x2="0" y2="40" stroke="#28a745" stroke-width="1.5" stroke-dasharray="4,2" />
    </g>
    
    <!-- 스토리 발굴 프로그램 -->
    <g transform="translate(-180, -50)">
      <rect x="-60" y="-20" width="120" height="40" rx="10" fill="#ffffff" stroke="#28a745" stroke-width="2" />
      <text x="0" y="5" font-family="Arial, sans-serif" font-size="12" text-anchor="middle" fill="#28a745" font-weight="bold">스토리 발굴</text>
      <line x1="60" y1="0" x2="90" y2="30" stroke="#28a745" stroke-width="1.5" stroke-dasharray="4,2" />
    </g>
    
    <!-- 마을 특화 상품 -->
    <g transform="translate(180, -50)">
      <rect x="-60" y="-20" width="120" height="40" rx="10" fill="#ffffff" stroke="#28a745" stroke-width="2" />
      <text x="0" y="5" font-family="Arial, sans-serif" font-size="12" text-anchor="middle" fill="#28a745" font-weight="bold">마을 특화 상품</text>
      <line x1="-60" y1="0" x2="-90" y2="30" stroke="#28a745" stroke-width="1.5" stroke-dasharray="4,2" />
    </g>
  </g>
  
  <!-- 제목 -->
  <text x="300" y="50" font-family="Arial, sans-serif" font-size="24" text-anchor="middle" font-weight="bold" fill="#333">지역 공동체 활성화</text>
  
  <!-- 부제목 -->
  <text x="300" y="80" font-family="Arial, sans-serif" font-size="16" text-anchor="middle" fill="#666">주민 참여 증가와 세대 간 소통 증진</text>
  
  <!-- 하단 정보 -->
  <rect x="50" y="320" width="500" height="60" rx="10" fill="#ffffff" stroke="#28a745" stroke-width="2" />
  <text x="300" y="345" font-family="Arial, sans-serif" font-size="14" text-anchor="middle" fill="#333" font-weight="bold">지역 문화 보존 및 정체성 강화</text>
  <text x="300" y="365" font-family="Arial, sans-serif" font-size="12" text-anchor="middle" fill="#666">스토리텔러 양성, 주민 참여 프로그램 운영으로 지역 공동체 활성화</text>
</svg>
